<svg width="642" height="100" viewBox="0 0 642 100" fill="none" xmlns="http://www.w3.org/2000/svg">
<g filter="url(#filter0_d)">
<mask id="path-1-outside-1" maskUnits="userSpaceOnUse" x="0" y="0" width="642" height="96" fill="black">
<rect fill="white" width="642" height="96"/>
<path fill-rule="evenodd" clip-rule="evenodd" d="M39 3V6H36V12H33L33 18H30L30 27H27L27 33H24L24 42H21L21 48H18L18 57H15L15 63H12L12 72H9V93L24 93L24 87H27L27 81H30L30 75H33L33 69H36V63H60V60H63V57H66V54H69V51H72V48H75V45H78V39H81V33H84V15H81V12H78V9H75V6H72V3H39ZM69 24V36H66V39H63V42H60V45H42V39H45V33H48V27H51V21H66V24H69Z"/>
<path d="M6 78H9L9 93L3 93V87H6L6 78Z"/>
<path d="M105 3V9H102V15H99V24H96V33H93V42H90V51H87V60H84V69H81V78H78V87H75V93L93 93V87H96V78H99V69H102V60H105V51H108V42H111V33H114V24H117V15H120V9.00001H123V3H105Z"/>
<path d="M153 3V33H159V27H161V21H164V15H167V9H170V3H191V6H188V9H185V15H182V18H179V24H176V27H173V33H170V36H167V42H164V45H162V54H164V66H167V75H170V87H173V93L153 93V81H150V69H147V66H144V69H141V72H138V78H135V81H132V87H129V93H111V84H114V81H117V75H120V72H123V66H126V63H129V57H132V54H135V48H138V45H141V39H138V27H135V15H132V3H153Z"/>
<path d="M200 3V15H197V27H194V42H191V57H188V66H185V75H182V93L233 93V84H236V69H206V60H209V51L236 51V45H239V39H212V30H215V21H242V15H245V3H200Z"/>
<path d="M257 3H278V9.00001H275V21H272V36H269V54H266V69H293V81H290V93H245V75H248V60H251V39H254V21H257V3Z"/>
<path fill-rule="evenodd" clip-rule="evenodd" d="M305 3V48H302V93L343 93V90H349V87H352V84H355V81H358V54H355V51H352V48H349V45L346 45V42H349V39H352V33H355V15H352V9H349V6H346V3H305ZM337 21H340V36H337V39H323V18H337V21ZM337 54H340V72H337V75H323V51H337V54Z"/>
<path d="M367 3H388V30H391V54H394V69L412 69V21H409V3H427V18H430V39H433V78H430V84H427V87H424V90H418V93L394 93V90L388 90V87H385V84H382V81H379V75H376V63H373V45H370V21H367V3Z"/>
<path fill-rule="evenodd" clip-rule="evenodd" d="M439 3H481V6H486V9H489V12H492V15H495V21H498V30H501V39H504V72H501V78H498V84H495V87H492V90H489V93L454 93V81H451V66H448V48H445V33H442V21H439V3ZM489 63H486V69L469 69V63H466V51H463V33H460V21H475V24H478V27H480V33H483V42H486V48H489V63Z"/>
<path d="M507 3H504V9.00001H507V3Z"/>
<path fill-rule="evenodd" clip-rule="evenodd" d="M507 3L507 18H510V27H513V36H516V45H519V54H522V63H525V72H528V81H531V93L564 93V90H567V87H570V84H573V81H576V78H579V60H576V51H573V42H570V33H567V24H564V21H561L561 18H558V15H555V12H552V9H549V6H546V3H507ZM561 51H558V45H555V39H552V33H549V27H546V24H543V21L528 21V30H531V39H534V48H537V57H540V66H543V69H558V63H561V51Z"/>
<path d="M567 3H585V6H588V12H591V15H594V21H597V24H600V30H603V33H606V39H609V42H612V3H630V72H633V78H636V84H639V93L621 93V87H618V81H615V75H612V72H609V66H606V63H603V57H600V54H597V48H594V45H591V39H588V36H585V30H582V27H579V21H576V18H573V12H570L570 9H567V3Z"/>
</mask>
<path fill-rule="evenodd" clip-rule="evenodd" d="M39 3V6H36V12H33L33 18H30L30 27H27L27 33H24L24 42H21L21 48H18L18 57H15L15 63H12L12 72H9V93L24 93L24 87H27L27 81H30L30 75H33L33 69H36V63H60V60H63V57H66V54H69V51H72V48H75V45H78V39H81V33H84V15H81V12H78V9H75V6H72V3H39ZM69 24V36H66V39H63V42H60V45H42V39H45V33H48V27H51V21H66V24H69Z" fill="#FCE740"/>
<path d="M6 78H9L9 93L3 93V87H6L6 78Z" fill="#FCE740"/>
<path d="M105 3V9H102V15H99V24H96V33H93V42H90V51H87V60H84V69H81V78H78V87H75V93L93 93V87H96V78H99V69H102V60H105V51H108V42H111V33H114V24H117V15H120V9.00001H123V3H105Z" fill="#FCE740"/>
<path d="M153 3V33H159V27H161V21H164V15H167V9H170V3H191V6H188V9H185V15H182V18H179V24H176V27H173V33H170V36H167V42H164V45H162V54H164V66H167V75H170V87H173V93L153 93V81H150V69H147V66H144V69H141V72H138V78H135V81H132V87H129V93H111V84H114V81H117V75H120V72H123V66H126V63H129V57H132V54H135V48H138V45H141V39H138V27H135V15H132V3H153Z" fill="#FCE740"/>
<path d="M200 3V15H197V27H194V42H191V57H188V66H185V75H182V93L233 93V84H236V69H206V60H209V51L236 51V45H239V39H212V30H215V21H242V15H245V3H200Z" fill="#FCE740"/>
<path d="M257 3H278V9.00001H275V21H272V36H269V54H266V69H293V81H290V93H245V75H248V60H251V39H254V21H257V3Z" fill="#FCE740"/>
<path fill-rule="evenodd" clip-rule="evenodd" d="M305 3V48H302V93L343 93V90H349V87H352V84H355V81H358V54H355V51H352V48H349V45L346 45V42H349V39H352V33H355V15H352V9H349V6H346V3H305ZM337 21H340V36H337V39H323V18H337V21ZM337 54H340V72H337V75H323V51H337V54Z" fill="#FCE740"/>
<path d="M367 3H388V30H391V54H394V69L412 69V21H409V3H427V18H430V39H433V78H430V84H427V87H424V90H418V93L394 93V90L388 90V87H385V84H382V81H379V75H376V63H373V45H370V21H367V3Z" fill="#FCE740"/>
<path fill-rule="evenodd" clip-rule="evenodd" d="M439 3H481V6H486V9H489V12H492V15H495V21H498V30H501V39H504V72H501V78H498V84H495V87H492V90H489V93L454 93V81H451V66H448V48H445V33H442V21H439V3ZM489 63H486V69L469 69V63H466V51H463V33H460V21H475V24H478V27H480V33H483V42H486V48H489V63Z" fill="#FCE740"/>
<path d="M507 3H504V9.00001H507V3Z" fill="#FCE740"/>
<path fill-rule="evenodd" clip-rule="evenodd" d="M507 3L507 18H510V27H513V36H516V45H519V54H522V63H525V72H528V81H531V93L564 93V90H567V87H570V84H573V81H576V78H579V60H576V51H573V42H570V33H567V24H564V21H561L561 18H558V15H555V12H552V9H549V6H546V3H507ZM561 51H558V45H555V39H552V33H549V27H546V24H543V21L528 21V30H531V39H534V48H537V57H540V66H543V69H558V63H561V51Z" fill="#FCE740"/>
<path d="M567 3H585V6H588V12H591V15H594V21H597V24H600V30H603V33H606V39H609V42H612V3H630V72H633V78H636V84H639V93L621 93V87H618V81H615V75H612V72H609V66H606V63H603V57H600V54H597V48H594V45H591V39H588V36H585V30H582V27H579V21H576V18H573V12H570L570 9H567V3Z" fill="#FCE740"/>
<path d="M39 3V0H36V3H39ZM39 6V9H42V6H39ZM36 6V3H33V6H36ZM36 12V15H39V12H36ZM33 12V9H30L30 12L33 12ZM33 18V21H36L36 18L33 18ZM30 18V15H27L27 18L30 18ZM30 27V30H33L33 27L30 27ZM27 27V24H24L24 27L27 27ZM27 33V36H30L30 33L27 33ZM24 33V30H21L21 33L24 33ZM24 42V45H27L27 42L24 42ZM21 42V39H18L18 42L21 42ZM21 48V51H24L24 48L21 48ZM18 48V45H15L15 48L18 48ZM18 57V60H21L21 57L18 57ZM15 57V54H12L12 57L15 57ZM15 63V66H18L18 63L15 63ZM12 63V60H9L9 63L12 63ZM12 72V75H15L15 72L12 72ZM9 72V69H6V72H9ZM9 93L9 96L9 96L9 93ZM24 93L24 96L27 95.9999L27 93L24 93ZM24 87V84H21L21 87L24 87ZM27 87V90H30L30 87L27 87ZM27 81V78H24L24 81L27 81ZM30 81V84H33L33 81L30 81ZM30 75V72H27L27 75L30 75ZM33 75V78H36L36 75L33 75ZM33 69V66H30L30 69L33 69ZM36 69V72H39V69H36ZM36 63V60H33V63H36ZM60 63V66H63V63H60ZM60 60V57H57V60H60ZM63 60V63H66V60H63ZM63 57V54H60V57H63ZM66 57V60H69V57H66ZM66 54V51H63V54H66ZM69 54V57H72V54H69ZM69 51V48H66V51H69ZM72 51V54H75V51H72ZM72 48V45H69V48H72ZM75 48V51H78V48H75ZM75 45V42H72V45H75ZM78 45V48H81V45H78ZM78 39V36H75V39H78ZM81 39V42H84V39H81ZM81 33V30H78V33H81ZM84 33V36H87V33H84ZM84 15H87V12H84V15ZM81 15H78V18H81V15ZM81 12H84V9H81V12ZM78 12H75V15H78V12ZM78 9H81V6H78V9ZM75 9H72V12H75V9ZM75 6H78V3H75V6ZM72 6H69V9H72V6ZM72 3H75V0H72V3ZM69 24H72V21H69V24ZM69 36V39H72V36H69ZM66 36V33H63V36H66ZM66 39V42H69V39H66ZM63 39V36H60V39H63ZM63 42V45H66V42H63ZM60 42V39H57V42H60ZM60 45V48H63V45H60ZM42 45H39V48H42V45ZM42 39V36H39V39H42ZM45 39V42H48V39H45ZM45 33V30H42V33H45ZM48 33V36H51V33H48ZM48 27V24H45V27H48ZM51 27V30H54V27H51ZM51 21V18H48V21H51ZM66 21H69V18H66V21ZM66 24H63V27H66V24ZM6 78V75H3L3 78L6 78ZM9 78L12 78L12 75H9V78ZM3 93H0V96L3 96L3 93ZM3 87V84H0V87H3ZM6 87V90H9L9 87L6 87ZM105 3V0H102V3H105ZM105 9V12H108V9H105ZM102 9V6H99V9H102ZM102 15V18H105V15H102ZM99 15V12H96V15H99ZM99 24V27H102V24H99ZM96 24V21H93V24H96ZM96 33V36H99V33H96ZM93 33V30H90V33H93ZM93 42V45H96V42H93ZM90 42V39H87V42H90ZM90 51V54H93V51H90ZM87 51V48H84V51H87ZM87 60V63H90V60H87ZM84 60V57H81V60H84ZM84 69V72H87V69H84ZM81 69V66H78V69H81ZM81 78V81H84V78H81ZM78 78V75H75V78H78ZM78 87V90H81V87H78ZM75 87V84H72V87H75ZM75 93H72V96L75 96L75 93ZM93 93L93 96L96 96V93H93ZM93 87V84H90V87H93ZM96 87V90H99V87H96ZM96 78V75H93V78H96ZM99 78V81H102V78H99ZM99 69V66H96V69H99ZM102 69V72H105V69H102ZM102 60V57H99V60H102ZM105 60V63H108V60H105ZM105 51V48H102V51H105ZM108 51V54H111V51H108ZM108 42V39H105V42H108ZM111 42V45H114V42H111ZM111 33V30H108V33H111ZM114 33V36H117V33H114ZM114 24V21H111V24H114ZM117 24V27H120V24H117ZM117 15V12H114V15H117ZM120 15V18H123V15H120ZM120 9.00001V6.00001H117V9.00001H120ZM123 9.00001V12H126V9.00001H123ZM123 3H126V0H123V3ZM153 3H156V0H153V3ZM153 33H150V36H153V33ZM159 33V36H162V33H159ZM159 27V24H156V27H159ZM161 27V30H164V27H161ZM161 21V18H158V21H161ZM164 21V24H167V21H164ZM164 15V12H161V15H164ZM167 15V18H170V15H167ZM167 9V6H164V9H167ZM170 9V12H173V9H170ZM170 3V0H167V3H170ZM191 3H194V0H191V3ZM191 6V9H194V6H191ZM188 6V3H185V6H188ZM188 9V12H191V9H188ZM185 9V6H182V9H185ZM185 15V18H188V15H185ZM182 15V12H179V15H182ZM182 18V21H185V18H182ZM179 18V15H176V18H179ZM179 24V27H182V24H179ZM176 24V21H173V24H176ZM176 27V30H179V27H176ZM173 27V24H170V27H173ZM173 33V36H176V33H173ZM170 33V30H167V33H170ZM170 36V39H173V36H170ZM167 36V33H164V36H167ZM167 42V45H170V42H167ZM164 42V39H161V42H164ZM164 45V48H167V45H164ZM162 45V42H159V45H162ZM162 54H159V57H162V54ZM164 54H167V51H164V54ZM164 66H161V69H164V66ZM167 66H170V63H167V66ZM167 75H164V78H167V75ZM170 75H173V72H170V75ZM170 87H167V90H170V87ZM173 87H176V84H173V87ZM173 93L173 96L176 96V93H173ZM153 93H150V96L153 96L153 93ZM153 81H156V78H153V81ZM150 81H147V84H150V81ZM150 69H153V66H150V69ZM147 69H144V72H147V69ZM147 66H150V63H147V66ZM144 66V63H141V66H144ZM144 69V72H147V69H144ZM141 69V66H138V69H141ZM141 72V75H144V72H141ZM138 72V69H135V72H138ZM138 78V81H141V78H138ZM135 78V75H132V78H135ZM135 81V84H138V81H135ZM132 81V78H129V81H132ZM132 87V90H135V87H132ZM129 87V84H126V87H129ZM129 93V96H132V93H129ZM111 93H108V96H111V93ZM111 84V81H108V84H111ZM114 84V87H117V84H114ZM114 81V78H111V81H114ZM117 81V84H120V81H117ZM117 75V72H114V75H117ZM120 75V78H123V75H120ZM120 72V69H117V72H120ZM123 72V75H126V72H123ZM123 66V63H120V66H123ZM126 66V69H129V66H126ZM126 63V60H123V63H126ZM129 63V66H132V63H129ZM129 57V54H126V57H129ZM132 57V60H135V57H132ZM132 54V51H129V54H132ZM135 54V57H138V54H135ZM135 48V45H132V48H135ZM138 48V51H141V48H138ZM138 45V42H135V45H138ZM141 45V48H144V45H141ZM141 39H144V36H141V39ZM138 39H135V42H138V39ZM138 27H141V24H138V27ZM135 27H132V30H135V27ZM135 15H138V12H135V15ZM132 15H129V18H132V15ZM132 3V0H129V3H132ZM200 3V0H197V3H200ZM200 15V18H203V15H200ZM197 15V12H194V15H197ZM197 27V30H200V27H197ZM194 27V24H191V27H194ZM194 42V45H197V42H194ZM191 42V39H188V42H191ZM191 57V60H194V57H191ZM188 57V54H185V57H188ZM188 66V69H191V66H188ZM185 66V63H182V66H185ZM185 75V78H188V75H185ZM182 75V72H179V75H182ZM182 93H179V96L182 96L182 93ZM233 93L233 96L236 96V93H233ZM233 84V81H230V84H233ZM236 84V87H239V84H236ZM236 69H239V66H236V69ZM206 69H203V72H206V69ZM206 60V57H203V60H206ZM209 60V63H212V60H209ZM209 51L209 48L206 48V51H209ZM236 51L236 54L239 54V51H236ZM236 45V42H233V45H236ZM239 45V48H242V45H239ZM239 39H242V36H239V39ZM212 39H209V42H212V39ZM212 30V27H209V30H212ZM215 30V33H218V30H215ZM215 21V18H212V21H215ZM242 21V24H245V21H242ZM242 15V12H239V15H242ZM245 15V18H248V15H245ZM245 3H248V0H245V3ZM257 3V0H254V3H257ZM278 3H281V0H278V3ZM278 9.00001V12H281V9.00001H278ZM275 9.00001V6.00001H272V9.00001H275ZM275 21V24H278V21H275ZM272 21V18H269V21H272ZM272 36V39H275V36H272ZM269 36V33H266V36H269ZM269 54V57H272V54H269ZM266 54V51H263V54H266ZM266 69H263V72H266V69ZM293 69H296V66H293V69ZM293 81V84H296V81H293ZM290 81V78H287V81H290ZM290 93V96H293V93H290ZM245 93H242V96H245V93ZM245 75V72H242V75H245ZM248 75V78H251V75H248ZM248 60V57H245V60H248ZM251 60V63H254V60H251ZM251 39V36H248V39H251ZM254 39V42H257V39H254ZM254 21V18H251V21H254ZM257 21V24H260V21H257ZM305 3V0H302V3H305ZM305 48V51H308V48H305ZM302 48V45H299V48H302ZM302 93H299V96L302 96L302 93ZM343 93L343 96L346 96V93H343ZM343 90V87H340V90H343ZM349 90V93H352V90H349ZM349 87V84H346V87H349ZM352 87V90H355V87H352ZM352 84V81H349V84H352ZM355 84V87H358V84H355ZM355 81V78H352V81H355ZM358 81V84H361V81H358ZM358 54H361V51H358V54ZM355 54H352V57H355V54ZM355 51H358V48H355V51ZM352 51H349V54H352V51ZM352 48H355V45H352V48ZM349 48H346V51H349V48ZM349 45H352V42L349 42L349 45ZM346 45H343V48L346 48L346 45ZM346 42V39H343V42H346ZM349 42V45H352V42H349ZM349 39V36H346V39H349ZM352 39V42H355V39H352ZM352 33V30H349V33H352ZM355 33V36H358V33H355ZM355 15H358V12H355V15ZM352 15H349V18H352V15ZM352 9H355V6H352V9ZM349 9H346V12H349V9ZM349 6H352V3H349V6ZM346 6H343V9H346V6ZM346 3H349V0H346V3ZM337 21H334V24H337V21ZM340 21H343V18H340V21ZM340 36V39H343V36H340ZM337 36V33H334V36H337ZM337 39V42H340V39H337ZM323 39H320V42H323V39ZM323 18V15H320V18H323ZM337 18H340V15H337V18ZM337 54H334V57H337V54ZM340 54H343V51H340V54ZM340 72V75H343V72H340ZM337 72V69H334V72H337ZM337 75V78H340V75H337ZM323 75H320V78H323V75ZM323 51V48H320V51H323ZM337 51H340V48H337V51ZM367 3V0H364V3H367ZM388 3H391V0H388V3ZM388 30H385V33H388V30ZM391 30H394V27H391V30ZM391 54H388V57H391V54ZM394 54H397V51H394V54ZM394 69H391V72L394 72L394 69ZM412 69L412 72L415 72V69H412ZM412 21H415V18H412V21ZM409 21H406V24H409V21ZM409 3V0H406V3H409ZM427 3H430V0H427V3ZM427 18H424V21H427V18ZM430 18H433V15H430V18ZM430 39H427V42H430V39ZM433 39H436V36H433V39ZM433 78V81H436V78H433ZM430 78V75H427V78H430ZM430 84V87H433V84H430ZM427 84V81H424V84H427ZM427 87V90H430V87H427ZM424 87V84H421V87H424ZM424 90V93H427V90H424ZM418 90V87H415V90H418ZM418 93L418 96L421 96V93H418ZM394 93H391V96L394 96L394 93ZM394 90H397V87L394 87L394 90ZM388 90H385V93L388 93L388 90ZM388 87H391V84H388V87ZM385 87H382V90H385V87ZM385 84H388V81H385V84ZM382 84H379V87H382V84ZM382 81H385V78H382V81ZM379 81H376V84H379V81ZM379 75H382V72H379V75ZM376 75H373V78H376V75ZM376 63H379V60H376V63ZM373 63H370V66H373V63ZM373 45H376V42H373V45ZM370 45H367V48H370V45ZM370 21H373V18H370V21ZM367 21H364V24H367V21ZM439 3V0H436V3H439ZM481 3H484V0H481V3ZM481 6H478V9H481V6ZM486 6H489V3H486V6ZM486 9H483V12H486V9ZM489 9H492V6H489V9ZM489 12H486V15H489V12ZM492 12H495V9H492V12ZM492 15H489V18H492V15ZM495 15H498V12H495V15ZM495 21H492V24H495V21ZM498 21H501V18H498V21ZM498 30H495V33H498V30ZM501 30H504V27H501V30ZM501 39H498V42H501V39ZM504 39H507V36H504V39ZM504 72V75H507V72H504ZM501 72V69H498V72H501ZM501 78V81H504V78H501ZM498 78V75H495V78H498ZM498 84V87H501V84H498ZM495 84V81H492V84H495ZM495 87V90H498V87H495ZM492 87V84H489V87H492ZM492 90V93H495V90H492ZM489 90V87H486V90H489ZM489 93L489 96L492 96V93H489ZM454 93H451V96L454 96L454 93ZM454 81H457V78H454V81ZM451 81H448V84H451V81ZM451 66H454V63H451V66ZM448 66H445V69H448V66ZM448 48H451V45H448V48ZM445 48H442V51H445V48ZM445 33H448V30H445V33ZM442 33H439V36H442V33ZM442 21H445V18H442V21ZM439 21H436V24H439V21ZM489 63V66H492V63H489ZM486 63V60H483V63H486ZM486 69L486 72L489 72V69H486ZM469 69H466V72L469 72L469 69ZM469 63H472V60H469V63ZM466 63H463V66H466V63ZM466 51H469V48H466V51ZM463 51H460V54H463V51ZM463 33H466V30H463V33ZM460 33H457V36H460V33ZM460 21V18H457V21H460ZM475 21H478V18H475V21ZM475 24H472V27H475V24ZM478 24H481V21H478V24ZM478 27H475V30H478V27ZM480 27H483V24H480V27ZM480 33H477V36H480V33ZM483 33H486V30H483V33ZM483 42H480V45H483V42ZM486 42H489V39H486V42ZM486 48H483V51H486V48ZM489 48H492V45H489V48ZM504 3V0H501V3H504ZM504 9.00001H501V12H504V9.00001ZM507 9.00001V12H510V9.00001H507ZM507 18L504 18L504 21H507V18ZM510 18H513V15H510V18ZM510 27H507V30H510V27ZM513 27H516V24H513V27ZM513 36H510V39H513V36ZM516 36H519V33H516V36ZM516 45H513V48H516V45ZM519 45H522V42H519V45ZM519 54H516V57H519V54ZM522 54H525V51H522V54ZM522 63H519V66H522V63ZM525 63H528V60H525V63ZM525 72H522V75H525V72ZM528 72H531V69H528V72ZM528 81H525V84H528V81ZM531 81H534V78H531V81ZM531 93H528V96L531 96L531 93ZM564 93L564 96L567 96V93H564ZM564 90V87H561V90H564ZM567 90V93H570V90H567ZM567 87V84H564V87H567ZM570 87V90H573V87H570ZM570 84V81H567V84H570ZM573 84V87H576V84H573ZM573 81V78H570V81H573ZM576 81V84H579V81H576ZM576 78V75H573V78H576ZM579 78V81H582V78H579ZM579 60H582V57H579V60ZM576 60H573V63H576V60ZM576 51H579V48H576V51ZM573 51H570V54H573V51ZM573 42H576V39H573V42ZM570 42H567V45H570V42ZM570 33H573V30H570V33ZM567 33H564V36H567V33ZM567 24H570V21H567V24ZM564 24H561V27H564V24ZM564 21H567V18H564V21ZM561 21L558 21.0001L558 24H561V21ZM561 18L564 17.9999L564 15H561V18ZM558 18H555V21H558V18ZM558 15H561V12H558V15ZM555 15H552V18H555V15ZM555 12H558V9H555V12ZM552 12H549V15H552V12ZM552 9H555V6H552V9ZM549 9H546V12H549V9ZM549 6H552V3H549V6ZM546 6H543V9H546V6ZM546 3H549V0H546V3ZM561 51H564V48H561V51ZM558 51H555V54H558V51ZM558 45H561V42H558V45ZM555 45H552V48H555V45ZM555 39H558V36H555V39ZM552 39H549V42H552V39ZM552 33H555V30H552V33ZM549 33H546V36H549V33ZM549 27H552V24H549V27ZM546 27H543V30H546V27ZM546 24H549V21H546V24ZM543 24H540V27H543V24ZM543 21H546V18L543 18L543 21ZM528 21L528 18L525 18V21H528ZM528 30H525V33H528V30ZM531 30H534V27H531V30ZM531 39H528V42H531V39ZM534 39H537V36H534V39ZM534 48H531V51H534V48ZM537 48H540V45H537V48ZM537 57H534V60H537V57ZM540 57H543V54H540V57ZM540 66H537V69H540V66ZM543 66H546V63H543V66ZM543 69H540V72H543V69ZM558 69V72H561V69H558ZM558 63V60H555V63H558ZM561 63V66H564V63H561ZM567 3V0H564V3H567ZM585 3H588V0H585V3ZM585 6H582V9H585V6ZM588 6H591V3H588V6ZM588 12H585V15H588V12ZM591 12H594V9H591V12ZM591 15H588V18H591V15ZM594 15H597V12H594V15ZM594 21H591V24H594V21ZM597 21H600V18H597V21ZM597 24H594V27H597V24ZM600 24H603V21H600V24ZM600 30H597V33H600V30ZM603 30H606V27H603V30ZM603 33H600V36H603V33ZM606 33H609V30H606V33ZM606 39H603V42H606V39ZM609 39H612V36H609V39ZM609 42H606V45H609V42ZM612 42V45H615V42H612ZM612 3V0H609V3H612ZM630 3H633V0H630V3ZM630 72H627V75H630V72ZM633 72H636V69H633V72ZM633 78H630V81H633V78ZM636 78H639V75H636V78ZM636 84H633V87H636V84ZM639 84H642V81H639V84ZM639 93L639 96L642 96V93H639ZM621 93H618V96L621 96L621 93ZM621 87H624V84H621V87ZM618 87H615V90H618V87ZM618 81H621V78H618V81ZM615 81H612V84H615V81ZM615 75H618V72H615V75ZM612 75H609V78H612V75ZM612 72H615V69H612V72ZM609 72H606V75H609V72ZM609 66H612V63H609V66ZM606 66H603V69H606V66ZM606 63H609V60H606V63ZM603 63H600V66H603V63ZM603 57H606V54H603V57ZM600 57H597V60H600V57ZM600 54H603V51H600V54ZM597 54H594V57H597V54ZM597 48H600V45H597V48ZM594 48H591V51H594V48ZM594 45H597V42H594V45ZM591 45H588V48H591V45ZM591 39H594V36H591V39ZM588 39H585V42H588V39ZM588 36H591V33H588V36ZM585 36H582V39H585V36ZM585 30H588V27H585V30ZM582 30H579V33H582V30ZM582 27H585V24H582V27ZM579 27H576V30H579V27ZM579 21H582V18H579V21ZM576 21H573V24H576V21ZM576 18H579V15H576V18ZM573 18H570V21H573V18ZM573 12H576V9H573V12ZM570 12L567 12.0001L567 15H570V12ZM570 9L573 8.99994L573 6H570V9ZM567 9H564V12H567V9ZM36 3V6H42V3H36ZM39 3H36V9H39V3ZM33 6V12H39V6H33ZM36 9H33V15H36V9ZM30 12L30 18L36 18L36 12L30 12ZM33 15H30V21H33V15ZM27 18L27 27L33 27L33 18L27 18ZM30 24H27V30H30V24ZM24 27L24 33L30 33L30 27L24 27ZM27 30H24V36H27V30ZM21 33L21 42L27 42L27 33L21 33ZM24 39H21V45H24V39ZM18 42L18 48L24 48L24 42L18 42ZM21 45H18V51H21V45ZM15 48L15 57L21 57L21 48L15 48ZM18 54H15V60H18V54ZM12 57L12 63L18 63L18 57L12 57ZM15 60H12V66H15V60ZM9 63L9 72L15 72L15 63L9 63ZM12 69H9V75H12V69ZM6 72V93H12V72H6ZM27 93L27 87L21 87L21 93L27 93ZM24 90H27V84H24V90ZM30 87L30 81L24 81L24 87L30 87ZM27 84H30V78H27V84ZM33 81L33 75L27 75L27 81L33 81ZM30 78H33V72H30V78ZM36 75L36 69L30 69L30 75L36 75ZM33 72H36V66H33V72ZM39 69V63H33V69H39ZM63 63V60H57V63H63ZM60 63H63V57H60V63ZM66 60V57H60V60H66ZM63 60H66V54H63V60ZM69 57V54H63V57H69ZM66 57H69V51H66V57ZM72 54V51H66V54H72ZM69 54H72V48H69V54ZM75 51V48H69V51H75ZM72 51H75V45H72V51ZM78 48V45H72V48H78ZM75 48H78V42H75V48ZM81 45V39H75V45H81ZM78 42H81V36H78V42ZM84 39V33H78V39H84ZM81 36H84V30H81V36ZM87 33V15H81V33H87ZM84 12H81V18H84V12ZM84 15V12H78V15H84ZM81 9H78V15H81V9ZM81 12V9H75V12H81ZM78 6H75V12H78V6ZM78 9V6H72V9H78ZM75 3H72V9H75V3ZM75 6V3H69V6H75ZM66 24V36H72V24H66ZM69 33H66V39H69V33ZM63 36V39H69V36H63ZM66 36H63V42H66V36ZM60 39V42H66V39H60ZM63 39H60V45H63V39ZM57 42V45H63V42H57ZM45 45V39H39V45H45ZM42 42H45V36H42V42ZM48 39V33H42V39H48ZM45 36H48V30H45V36ZM51 33V27H45V33H51ZM48 30H51V24H48V30ZM54 27V21H48V27H54ZM63 21V24H69V21H63ZM66 27H69V21H66V27ZM6 81H9V75H6V81ZM6 78L6 93L12 93L12 78L6 78ZM6 93V87H0V93H6ZM3 90H6V84H3V90ZM9 87L9 78L3 78L3 87L9 87ZM102 3V9H108V3H102ZM105 6H102V12H105V6ZM99 9V15H105V9H99ZM102 12H99V18H102V12ZM96 15V24H102V15H96ZM99 21H96V27H99V21ZM93 24V33H99V24H93ZM96 30H93V36H96V30ZM90 33V42H96V33H90ZM93 39H90V45H93V39ZM87 42V51H93V42H87ZM90 48H87V54H90V48ZM84 51V60H90V51H84ZM87 57H84V63H87V57ZM81 60V69H87V60H81ZM84 66H81V72H84V66ZM78 69V78H84V69H78ZM81 75H78V81H81V75ZM75 78V87H81V78H75ZM78 84H75V90H78V84ZM72 87V93H78V87H72ZM96 93V87H90V93H96ZM93 90H96V84H93V90ZM99 87V78H93V87H99ZM96 81H99V75H96V81ZM102 78V69H96V78H102ZM99 72H102V66H99V72ZM105 69V60H99V69H105ZM102 63H105V57H102V63ZM108 60V51H102V60H108ZM105 54H108V48H105V54ZM111 51V42H105V51H111ZM108 45H111V39H108V45ZM114 42V33H108V42H114ZM111 36H114V30H111V36ZM117 33V24H111V33H117ZM114 27H117V21H114V27ZM120 24V15H114V24H120ZM117 18H120V12H117V18ZM123 15V9.00001H117V15H123ZM120 12H123V6.00001H120V12ZM126 9.00001V3H120V9.00001H126ZM150 3V33H156V3H150ZM162 33V27H156V33H162ZM159 30H161V24H159V30ZM164 27V21H158V27H164ZM161 24H164V18H161V24ZM167 21V15H161V21H167ZM164 18H167V12H164V18ZM170 15V9H164V15H170ZM167 12H170V6H167V12ZM173 9V3H167V9H173ZM188 3V6H194V3H188ZM191 3H188V9H191V3ZM185 6V9H191V6H185ZM188 6H185V12H188V6ZM182 9V15H188V9H182ZM185 12H182V18H185V12ZM179 15V18H185V15H179ZM182 15H179V21H182V15ZM176 18V24H182V18H176ZM179 21H176V27H179V21ZM173 24V27H179V24H173ZM176 24H173V30H176V24ZM170 27V33H176V27H170ZM173 30H170V36H173V30ZM167 33V36H173V33H167ZM170 33H167V39H170V33ZM164 36V42H170V36H164ZM167 39H164V45H167V39ZM161 42V45H167V42H161ZM164 42H162V48H164V42ZM159 45V54H165V45H159ZM162 57H164V51H162V57ZM161 54V66H167V54H161ZM164 69H167V63H164V69ZM164 66V75H170V66H164ZM167 78H170V72H167V78ZM167 75V87H173V75H167ZM170 90H173V84H170V90ZM170 87V93H176V87H170ZM156 93V81H150V93H156ZM153 78H150V84H153V78ZM153 81V69H147V81H153ZM150 66H147V72H150V66ZM150 69V66H144V69H150ZM147 63H144V69H147V63ZM141 66V69H147V66H141ZM144 66H141V72H144V66ZM138 69V72H144V69H138ZM141 69H138V75H141V69ZM135 72V78H141V72H135ZM138 75H135V81H138V75ZM132 78V81H138V78H132ZM135 78H132V84H135V78ZM129 81V87H135V81H129ZM132 84H129V90H132V84ZM126 87V93H132V87H126ZM114 93V84H108V93H114ZM111 87H114V81H111V87ZM117 84V81H111V84H117ZM114 84H117V78H114V84ZM120 81V75H114V81H120ZM117 78H120V72H117V78ZM123 75V72H117V75H123ZM120 75H123V69H120V75ZM126 72V66H120V72H126ZM123 69H126V63H123V69ZM129 66V63H123V66H129ZM126 66H129V60H126V66ZM132 63V57H126V63H132ZM129 60H132V54H129V60ZM135 57V54H129V57H135ZM132 57H135V51H132V57ZM138 54V48H132V54H138ZM135 51H138V45H135V51ZM141 48V45H135V48H141ZM138 48H141V42H138V48ZM144 45V39H138V45H144ZM141 36H138V42H141V36ZM141 39V27H135V39H141ZM138 24H135V30H138V24ZM138 27V15H132V27H138ZM135 12H132V18H135V12ZM135 15V3H129V15H135ZM197 3V15H203V3H197ZM200 12H197V18H200V12ZM194 15V27H200V15H194ZM197 24H194V30H197V24ZM191 27V42H197V27H191ZM194 39H191V45H194V39ZM188 42V57H194V42H188ZM191 54H188V60H191V54ZM185 57V66H191V57H185ZM188 63H185V69H188V63ZM182 66V75H188V66H182ZM185 72H182V78H185V72ZM179 75V93H185V75H179ZM236 93V84H230V93H236ZM233 87H236V81H233V87ZM239 84V69H233V84H239ZM209 69V60H203V69H209ZM206 63H209V57H206V63ZM212 60V51H206V60H212ZM239 51V45H233V51H239ZM236 48H239V42H236V48ZM242 45V39H236V45H242ZM215 39V30H209V39H215ZM212 33H215V27H212V33ZM218 30V21H212V30H218ZM245 21V15H239V21H245ZM242 18H245V12H242V18ZM248 15V3H242V15H248ZM275 3V9.00001H281V3H275ZM278 6.00001H275V12H278V6.00001ZM272 9.00001V21H278V9.00001H272ZM275 18H272V24H275V18ZM269 21V36H275V21H269ZM272 33H269V39H272V33ZM266 36V54H272V36H266ZM269 51H266V57H269V51ZM263 54V69H269V54H263ZM290 69V81H296V69H290ZM293 78H290V84H293V78ZM287 81V93H293V81H287ZM248 93V75H242V93H248ZM245 78H248V72H245V78ZM251 75V60H245V75H251ZM248 63H251V57H248V63ZM254 60V39H248V60H254ZM251 42H254V36H251V42ZM257 39V21H251V39H257ZM254 24H257V18H254V24ZM260 21V3H254V21H260ZM302 3V48H308V3H302ZM305 45H302V51H305V45ZM299 48V93H305V48H299ZM346 93V90H340V93H346ZM352 90V87H346V90H352ZM349 90H352V84H349V90ZM355 87V84H349V87H355ZM352 87H355V81H352V87ZM358 84V81H352V84H358ZM355 84H358V78H355V84ZM361 81V54H355V81H361ZM358 51H355V57H358V51ZM358 54V51H352V54H358ZM355 48H352V54H355V48ZM355 51V48H349V51H355ZM352 45H349V51H352V45ZM352 48V45H346V48H352ZM349 42L346 42L346 48L349 48L349 42ZM349 45V42H343V45H349ZM346 45H349V39H346V45ZM352 42V39H346V42H352ZM349 42H352V36H349V42ZM355 39V33H349V39H355ZM352 36H355V30H352V36ZM358 33V15H352V33H358ZM355 12H352V18H355V12ZM355 15V9H349V15H355ZM352 6H349V12H352V6ZM352 9V6H346V9H352ZM349 3H346V9H349V3ZM349 6V3H343V6H349ZM337 24H340V18H337V24ZM337 21V36H343V21H337ZM340 33H337V39H340V33ZM334 36V39H340V36H334ZM326 39V18H320V39H326ZM334 18V21H340V18H334ZM337 57H340V51H337V57ZM337 54V72H343V54H337ZM340 69H337V75H340V69ZM334 72V75H340V72H334ZM326 75V51H320V75H326ZM334 51V54H340V51H334ZM385 3V30H391V3H385ZM388 33H391V27H388V33ZM388 30V54H394V30H388ZM391 57H394V51H391V57ZM391 54V69H397V54H391ZM415 69V21H409V69H415ZM412 18H409V24H412V18ZM412 21V3H406V21H412ZM424 3V18H430V3H424ZM427 21H430V15H427V21ZM427 18V39H433V18H427ZM430 42H433V36H430V42ZM430 39V78H436V39H430ZM433 75H430V81H433V75ZM427 78V84H433V78H427ZM430 81H427V87H430V81ZM424 84V87H430V84H424ZM427 84H424V90H427V84ZM421 87V90H427V87H421ZM415 90V93H421V90H415ZM397 93V90H391V93H397ZM391 90V87H385V90H391ZM388 84H385V90H388V84ZM388 87V84H382V87H388ZM385 81H382V87H385V81ZM385 84V81H379V84H385ZM382 78H379V84H382V78ZM382 81V75H376V81H382ZM379 72H376V78H379V72ZM379 75V63H373V75H379ZM376 60H373V66H376V60ZM376 63V45H370V63H376ZM373 42H370V48H373V42ZM373 45V21H367V45H373ZM370 18H367V24H370V18ZM370 21V3H364V21H370ZM478 3V6H484V3H478ZM483 6V9H489V6H483ZM486 12H489V6H486V12ZM486 9V12H492V9H486ZM489 15H492V9H489V15ZM489 12V15H495V12H489ZM492 18H495V12H492V18ZM492 15V21H498V15H492ZM495 24H498V18H495V24ZM495 21V30H501V21H495ZM498 33H501V27H498V33ZM498 30V39H504V30H498ZM501 42H504V36H501V42ZM501 39V72H507V39H501ZM504 69H501V75H504V69ZM498 72V78H504V72H498ZM501 75H498V81H501V75ZM495 78V84H501V78H495ZM498 81H495V87H498V81ZM492 84V87H498V84H492ZM495 84H492V90H495V84ZM489 87V90H495V87H489ZM492 87H489V93H492V87ZM486 90V93H492V90H486ZM457 93V81H451V93H457ZM454 78H451V84H454V78ZM454 81V66H448V81H454ZM451 63H448V69H451V63ZM451 66V48H445V66H451ZM448 45H445V51H448V45ZM448 48V33H442V48H448ZM445 30H442V36H445V30ZM445 33V21H439V33H445ZM442 18H439V24H442V18ZM442 21V3H436V21H442ZM489 60H486V66H489V60ZM483 63V69H489V63H483ZM472 69V63H466V69H472ZM469 60H466V66H469V60ZM469 63V51H463V63H469ZM466 48H463V54H466V48ZM466 51V33H460V51H466ZM463 30H460V36H463V30ZM463 33V21H457V33H463ZM472 21V24H478V21H472ZM475 27H478V21H475V27ZM475 24V27H481V24H475ZM478 30H480V24H478V30ZM477 27V33H483V27H477ZM480 36H483V30H480V36ZM480 33V42H486V33H480ZM483 45H486V39H483V45ZM483 42V48H489V42H483ZM486 51H489V45H486V51ZM486 48V63H492V48H486ZM507 0H504V6H507V0ZM501 3V9.00001H507V3H501ZM504 12H507V6.00001H504V12ZM510 9.00001V3H504V9.00001H510ZM504 3.00001L504 18L510 18L510 2.99999L504 3.00001ZM507 21H510V15H507V21ZM507 18V27H513V18H507ZM510 30H513V24H510V30ZM510 27V36H516V27H510ZM513 39H516V33H513V39ZM513 36V45H519V36H513ZM516 48H519V42H516V48ZM516 45V54H522V45H516ZM519 57H522V51H519V57ZM519 54V63H525V54H519ZM522 66H525V60H522V66ZM522 63V72H528V63H522ZM525 75H528V69H525V75ZM525 72V81H531V72H525ZM528 84H531V78H528V84ZM528 81V93H534V81H528ZM567 93V90H561V93H567ZM564 93H567V87H564V93ZM570 90V87H564V90H570ZM567 90H570V84H567V90ZM573 87V84H567V87H573ZM570 87H573V81H570V87ZM576 84V81H570V84H576ZM573 84H576V78H573V84ZM579 81V78H573V81H579ZM576 81H579V75H576V81ZM582 78V60H576V78H582ZM579 57H576V63H579V57ZM579 60V51H573V60H579ZM576 48H573V54H576V48ZM576 51V42H570V51H576ZM573 39H570V45H573V39ZM573 42V33H567V42H573ZM570 30H567V36H570V30ZM570 33V24H564V33H570ZM567 21H564V27H567V21ZM567 24V21H561V24H567ZM564 18H561V24H564V18ZM564 20.9999L564 17.9999L558 18.0001L558 21.0001L564 20.9999ZM561 15H558V21H561V15ZM561 18V15H555V18H561ZM558 12H555V18H558V12ZM558 15V12H552V15H558ZM555 9H552V15H555V9ZM555 12V9H549V12H555ZM552 6H549V12H552V6ZM552 9V6H546V9H552ZM549 3H546V9H549V3ZM549 6V3H543V6H549ZM561 48H558V54H561V48ZM561 51V45H555V51H561ZM558 42H555V48H558V42ZM558 45V39H552V45H558ZM555 36H552V42H555V36ZM555 39V33H549V39H555ZM552 30H549V36H552V30ZM552 33V27H546V33H552ZM549 24H546V30H549V24ZM549 27V24H543V27H549ZM546 21H543V27H546V21ZM546 24V21H540V24H546ZM525 21V30H531V21H525ZM528 33H531V27H528V33ZM528 30V39H534V30H528ZM531 42H534V36H531V42ZM531 39V48H537V39H531ZM534 51H537V45H534V51ZM534 48V57H540V48H534ZM537 60H540V54H537V60ZM537 57V66H543V57H537ZM540 69H543V63H540V69ZM540 66V69H546V66H540ZM561 69V63H555V69H561ZM558 66H561V60H558V66ZM564 63V51H558V63H564ZM582 3V6H588V3H582ZM585 9H588V3H585V9ZM585 6V12H591V6H585ZM588 15H591V9H588V15ZM588 12V15H594V12H588ZM591 18H594V12H591V18ZM591 15V21H597V15H591ZM594 24H597V18H594V24ZM594 21V24H600V21H594ZM597 27H600V21H597V27ZM597 24V30H603V24H597ZM600 33H603V27H600V33ZM600 30V33H606V30H600ZM603 36H606V30H603V36ZM603 33V39H609V33H603ZM606 42H609V36H606V42ZM606 39V42H612V39H606ZM609 45H612V39H609V45ZM615 42V3H609V42H615ZM627 3V72H633V3H627ZM630 75H633V69H630V75ZM630 72V78H636V72H630ZM633 81H636V75H633V81ZM633 78V84H639V78H633ZM636 87H639V81H636V87ZM636 84V93H642V84H636ZM624 93V87H618V93H624ZM621 84H618V90H621V84ZM621 87V81H615V87H621ZM618 78H615V84H618V78ZM618 81V75H612V81H618ZM615 72H612V78H615V72ZM615 75V72H609V75H615ZM612 69H609V75H612V69ZM612 72V66H606V72H612ZM609 63H606V69H609V63ZM609 66V63H603V66H609ZM606 60H603V66H606V60ZM606 63V57H600V63H606ZM603 54H600V60H603V54ZM603 57V54H597V57H603ZM600 51H597V57H600V51ZM600 54V48H594V54H600ZM597 45H594V51H597V45ZM597 48V45H591V48H597ZM594 42H591V48H594V42ZM594 45V39H588V45H594ZM591 36H588V42H591V36ZM591 39V36H585V39H591ZM588 33H585V39H588V33ZM588 36V30H582V36H588ZM585 27H582V33H585V27ZM585 30V27H579V30H585ZM582 24H579V30H582V24ZM582 27V21H576V27H582ZM579 18H576V24H579V18ZM579 21V18H573V21H579ZM576 15H573V21H576V15ZM576 18V12H570V18H576ZM573 9H570V15H573V9ZM573 11.9999L573 8.99994L567 9.00006L567 12.0001L573 11.9999ZM570 6H567V12H570V6ZM570 9V3H564V9H570ZM72 0H39V6H72V0ZM9 96L24 96L24 90L9 90L9 96ZM36 66H60V60H36V66ZM60 42H42V48H60V42ZM51 24H66V18H51V24ZM9 90L3 90L3 96L9 96L9 90ZM123 0H105V6H123V0ZM75 96L93 96L93 90L75 90L75 96ZM132 6H153V0H132V6ZM153 36H159V30H153V36ZM170 6H191V0H170V6ZM173 90L153 90L153 96L173 96L173 90ZM129 90H111V96H129V90ZM245 0H200V6H245V0ZM182 96L233 96L233 90L182 90L182 96ZM236 66H206V72H236V66ZM209 54L236 54L236 48L209 48L209 54ZM239 36H212V42H239V36ZM215 24H242V18H215V24ZM257 6H278V0H257V6ZM266 72H293V66H266V72ZM290 90H245V96H290V90ZM346 0H305V6H346V0ZM302 96L343 96L343 90L302 90L302 96ZM343 93H349V87H343V93ZM337 36H323V42H337V36ZM323 21H337V15H323V21ZM337 72H323V78H337V72ZM323 54H337V48H323V54ZM367 6H388V0H367V6ZM394 72L412 72L412 66L394 66L394 72ZM409 6H427V0H409V6ZM424 87H418V93H424V87ZM418 90L394 90L394 96L418 96L418 90ZM394 87L388 87L388 93L394 93L394 87ZM439 6H481V0H439V6ZM481 9H486V3H481V9ZM489 90L454 90L454 96L489 96L489 90ZM486 66L469 66L469 72L486 72L486 66ZM460 24H475V18H460V24ZM546 0H507V6H546V0ZM531 96L564 96L564 90L531 90L531 96ZM543 18L528 18L528 24L543 24L543 18ZM543 72H558V66H543V72ZM567 6H585V0H567V6ZM612 6H630V0H612V6ZM639 90L621 90L621 96L639 96L639 90Z" fill="black" mask="url(#path-1-outside-1)"/>
</g>
<path d="M48 48V51H30L30 54H18L18 57H15L15 63H12L12 72H9V93L24 93L24 87H27L27 81H30L30 75H33L33 69H36V63L60 63V60H63V57H66V54H69V51H72V48H48Z" fill="#FFBE00"/>
<path d="M9 78H6L6 87H3V93L9 93L9 78Z" fill="#FFBE00"/>
<path d="M90 48H96V51H105V60H102V69H99V78H96V87H93V93L75 93V87H78V78H81V69H84V60H87V51H90V48Z" fill="#FFBE00"/>
<path d="M132 54H153V57H164V66H167V75H170V87H173V93L153 93V81H150V69H147V66H144V69H141V72H138V78H135V81H132V87H129V93L111 93V84H114V81H117V75H120V72H123V66H126V63H129V57H132V54Z" fill="#FFBE00"/>
<path d="M206 51H209V60H206V69H236V84H233V93L182 93V75H185V66H188V57H191V54H206V51Z" fill="#FFBE00"/>
<path d="M251 51V60H248V75H245V93L290 93V81H293V69H266V54H269V51H251Z" fill="#FFBE00"/>
<path d="M302 51H308V54H323V75H337V72H340V54H358V81H355V84H352V87H349V90H343V93H302V51Z" fill="#FFBE00"/>
<path d="M373 51V63H376V75H379V81H382V84H385V87H388V90L394 90V93L418 93V90H424V87H427V84H430V78H433V51H412V69H394V54H391V51H373Z" fill="#FFBE00"/>
<path d="M448 51V66H451V81H454V93L489 93V90H492V87H495V84H498V78H501V72H504V57H489V63H486V69H469V63H466V54H457V51H448Z" fill="#FFBE00"/>
<path d="M528 51V54H522V63H525V72H528V81H531V93H564V90H567V87H570V84H573V81H576V78H579V60H576V51H561L561 63H558V69H543V66H540V57H537V51H528Z" fill="#FFBE00"/>
<path d="M597 51H600V54H597V51Z" fill="#FFBE00"/>
<path d="M600 51H630V72H633V78H636V84H639V93L621 93V87H618V81H615V75H612V72H609V66H606V63H603V57H600L600 51Z" fill="#FFBE00"/>
<path d="M379 66H394V69H412V66H433V78H430V84H427V87H424V90H418V93L394 93V90H388V87H385V84H382V81H379V75H376V69H379V66Z" fill="#F59500"/>
<path d="M263 69H293V81H290V93L245 93V75H248V72H263V69Z" fill="#F59500"/>
<path d="M18 72L18 75H9V93H24L24 87H27L27 81H30L30 75H33V72H18Z" fill="#F59500"/>
<path d="M6 78H9L9 93L3 93V87H6L6 78Z" fill="#F59500"/>
<path d="M81 72V78H78V87H75V93L93 93V87H96V78H99V75H87V72H81Z" fill="#F59500"/>
<path d="M117 75V81H114V84H111V93L129 93V87H132V81H135V78H138V75H117Z" fill="#F59500"/>
<path d="M153 78H170V87H173V93L153 93V81H150V75H153V78Z" fill="#F59500"/>
<path d="M230 72V75H194V78H182V93L233 93V84H236V72H230Z" fill="#F59500"/>
<path d="M302 69H323V75H337V72H340V69H358V81H355V84H352V87H349V90H343V93H302V69Z" fill="#F59500"/>
<path d="M451 69V81H454V93L489 93V90H492V87H495V84H498V78H501V72L457 72V69H451Z" fill="#F59500"/>
<path d="M579 66V78H576V81H573V84H570V87H567V90H564V93L531 93V81H528V72H531V69H534V66H543V69H558V66H579Z" fill="#F59500"/>
<path d="M609 66H612V72H609V66Z" fill="#F59500"/>
<path d="M612 66H618V69H630V72H633V78H636V84H639V93L621 93V87H618V81H615V75H612L612 66Z" fill="#F59500"/>
<path d="M42 3H39V6H42V3Z" fill="white"/>
<path d="M39 6L36 6V12H39L39 6Z" fill="white"/>
<path d="M72 3V6H42V3H72Z" fill="white"/>
<path d="M72 6L75 6V9H72V6Z" fill="white"/>
<path d="M105 3V6H123V3H105Z" fill="white"/>
<path d="M105 9H102V12H105V9Z" fill="white"/>
<path d="M132 3V9H135V6H153V3H132Z" fill="white"/>
<path d="M170 3V6L191 6V3H170Z" fill="white"/>
<path d="M200 3V9H203V6H245V3H200Z" fill="white"/>
<path d="M257 3H278V6H260V9H257V3Z" fill="white"/>
<path d="M305 3V9H308V6H346V3H305Z" fill="white"/>
<path d="M349 6L346 6V9H349V6Z" fill="white"/>
<path d="M367 3H388V6H370V9H367V3Z" fill="white"/>
<path d="M427 3V6H412V9H409V3H427Z" fill="white"/>
<path d="M439 3H481V6H486V9H480V6H442V9H439V3Z" fill="white"/>
<path d="M507 3H504V9.00001H507V3Z" fill="white"/>
<path d="M507 3L507 6H546V3H507Z" fill="white"/>
<path d="M567 3H585V6H570L570 9H567V3Z" fill="white"/>
<path d="M612 3V9H615V6H630V3H612Z" fill="white"/>
<defs>
<filter id="filter0_d" x="0" y="0" width="642" height="100" filterUnits="userSpaceOnUse" color-interpolation-filters="sRGB">
<feFlood flood-opacity="0" result="BackgroundImageFix"/>
<feColorMatrix in="SourceAlpha" type="matrix" values="0 0 0 0 0 0 0 0 0 0 0 0 0 0 0 0 0 0 127 0"/>
<feOffset dy="4"/>
<feColorMatrix type="matrix" values="0 0 0 0 0 0 0 0 0 0 0 0 0 0 0 0 0 0 1 0"/>
<feBlend mode="normal" in2="BackgroundImageFix" result="effect1_dropShadow"/>
<feBlend mode="normal" in="SourceGraphic" in2="effect1_dropShadow" result="shape"/>
</filter>
</defs>
</svg>
