<svg width="40" height="80" viewBox="0 0 40 80" fill="none" xmlns="http://www.w3.org/2000/svg">
<path fill-rule="evenodd" clip-rule="evenodd" d="M35 72H5V74H3V76H5V78H7V80H17V78H33V76H37V74H35V72Z" fill="#C6C6C6"/>
<path d="M10 60V72H14V70H16V68H18V62H20V72H24V70H26V60H10Z" fill="#2E8EE6"/>
<path d="M26 58H10V60H26V62H24V64H26V70H24V74H20V62H18V68H16V70H14V74H10V64H12V62H8V76H16V70H18V76H28V74H26V70H28V60H26V58Z" fill="black"/>
<path d="M10 60H12V62H10V60Z" fill="#1065B3"/>
<path d="M10 64H12V66H10V64Z" fill="#1065B3"/>
<path d="M14 70H12V72H14V70Z" fill="#1065B3"/>
<path d="M16 68V70H14V68H16Z" fill="#1065B3"/>
<path d="M16 68V62H18V68H16Z" fill="#1065B3"/>
<path d="M26 60H24V62H26V60Z" fill="#1065B3"/>
<path d="M24 64H26V66H24V64Z" fill="#1065B3"/>
<path d="M22 64H20V72H24V68H22V64Z" fill="#1065B3"/>
<path d="M14 72H10V74H14V72Z" fill="#74582E"/>
<path d="M24 72H20V74H24V72Z" fill="#74582E"/>
<path d="M12 72H10V74H12V72Z" fill="#573B10"/>
<path d="M22 72H20V74H22V72Z" fill="#573B10"/>
<path d="M34 30H38V34H36V36H34V40H32V44H30V38H32V34H34V30Z" fill="#F3CCA7"/>
<path d="M6 50V60H8V62H10V60H12V58H10V50H6Z" fill="#F3CCA7"/>
<path d="M20 42H16V44H20V42Z" fill="#F3CCA7"/>
<path d="M36 30H38V34H36V30Z" fill="#F3AC91"/>
<path d="M36 34V36H34V34H36Z" fill="#F3AC91"/>
<path d="M32 38H34V40H32V38Z" fill="#F3AC91"/>
<path d="M30 42H32V44H30V42Z" fill="#F3AC91"/>
<path d="M10 50H8V62H10V60H12V58H10V50Z" fill="#F3AC91"/>
<path d="M20 42H16V44H20V42Z" fill="#F3AC91"/>
<path d="M10 40H12V42H14V44H16V46H20V44H22V42H24V44H26V48H24V58H12V46H10V48H6V44H8V42H10V40Z" fill="white"/>
<path d="M22 42H24V44H22V42Z" fill="#E5E5E5"/>
<path d="M22 56H12V58H24V56H26V48H28V44H26V48H24V54H22V56Z" fill="#E5E5E5"/>
<path d="M12 44H10V42H8V44H10V46H8V48H10V46H12V44Z" fill="#E5E5E5"/>
<path fill-rule="evenodd" clip-rule="evenodd" d="M38 28H34V30H32V34H30V38H28V42H24V40H22V42H20V44H16V42H14V40H12V38H10V40H8V42H6V44H4V60H6V62H8V60H6V50H10V58H12V60H10V62H12V60H28V48H30V46H32V44H34V40H36V36H38V34H40V30H38V28ZM38 30V34H36V36H34V40H32V44H30V38H32V34H34V30H38ZM24 58V56H26V48H28V44H24V42H22V44H20V46H16V44H14V42H12V40H10V42H8V44H6V48H10V46H12V58H24Z" fill="black"/>
<path d="M26 14H10V16H8V26H4V24H2V30H8V36H10V38H28V16H26V14Z" fill="#F3CCA7"/>
<path d="M16 14H26V16H16V14Z" fill="#F3AC91"/>
<path d="M26 16H28V22H26V16Z" fill="#F3AC91"/>
<path d="M10 16H8V30H10V16Z" fill="#F3AC91"/>
<path d="M6 26H4V28H6V26Z" fill="#F3AC91"/>
<path d="M16 22H18V24H16V22Z" fill="#F3AC91"/>
<path d="M18 24V26H20V24H18Z" fill="#F3AC91"/>
<path d="M14 22H16V24H14V22Z" fill="black"/>
<path d="M14 24V26H12V24H14Z" fill="black"/>
<path d="M16 24H18V26H16V24Z" fill="black"/>
<path d="M22 32V34H18V32H22Z" fill="black"/>
<path d="M24 22H22V24H20V26H22V24H24V26H26V24H24V22Z" fill="black"/>
<path fill-rule="evenodd" clip-rule="evenodd" d="M6 24H8V30H10V32H18V38H19V36H21V38H22V32H28V42H26V44H16V42H12V40H10V38H8V34H6V24ZM22 32V30H18V32H22Z" fill="#424242"/>
<path d="M6 24H8V32H10V36H12V38H14V42H12V40H10V38H8V34H6V24Z" fill="#2E2E2E"/>
<path d="M28 32H26V36H24V40H22V42H20V44H24V42H26V38H28V32Z" fill="#2E2E2E"/>
<path d="M8 2H26V4H28V8H30V14H28V16H26V14H10V16H8V24H4V22H2V6H4V4H8V2Z" fill="#424242"/>
<path d="M28 4H26V8H24V10H26V12H10V14H26V16H28V14H30V8H28V4Z" fill="#2E2E2E"/>
<path d="M2 6H4V8H6V12H8V24H4V14H2V6Z" fill="#2E2E2E"/>
<path d="M24 4H14V6H24V4Z" fill="#666666"/>
<path d="M12 6H10V8H12V6Z" fill="#666666"/>
<path fill-rule="evenodd" clip-rule="evenodd" d="M26 0H8V2H4V4H2V6H0V14H2V24H0V30H2V32H4V34H6V38H8V40H10V42H12V44H16V46H24V44H26V42H28V38H30V14H32V8H30V4H28V2H26V0ZM26 2V4H28V8H30V14H28V38H26V42H24V44H16V42H12V40H10V38H8V34H6V30H2V24H4V26H6V24H4V14H2V6H4V4H8V2H26Z" fill="black"/>
</svg>
