<svg width="320" height="368" viewBox="0 0 320 368" fill="none" xmlns="http://www.w3.org/2000/svg">
<rect width="1194" height="3996" transform="translate(-197 -2267)" fill="white"/>
<path fill-rule="evenodd" clip-rule="evenodd" d="M66 24H38V28H34H30V32H26V64H22V76H26H30V84H34V88H38H42V92H66V88H70V84H74V32H70V28H66V24Z" fill="#FAE6CE"/>
<path fill-rule="evenodd" clip-rule="evenodd" d="M46 24H66V28H70V32H62V28H46V24ZM70 32H74V64H70V32ZM26 32H30V64H26V32ZM34 84H30V72H26V68H30V64H34V84ZM46 88V84H34V88H42V92H66V88H46ZM30 32V28H34V32H30Z" fill="#714A1C" fill-opacity="0.25" style="mix-blend-mode:multiply"/>
<path fill-rule="evenodd" clip-rule="evenodd" d="M42 60H54V64H50V72H46V64H42V60ZM62 80H54V84H62V80ZM62 60H66H70V64H66V72H62V60Z" fill="black"/>
<path fill-rule="evenodd" clip-rule="evenodd" d="M58 60H54V64H50V68H54V64H58V60Z" fill="#714A1C" fill-opacity="0.25" style="mix-blend-mode:multiply"/>
<path fill-rule="evenodd" clip-rule="evenodd" d="M46 32H42V36H46V32ZM50 32H62V36H50V32ZM66 40V36H62V40H66ZM66 40V44H70V40H66ZM22 64H26V68H22V64Z" fill="#FFFCF9" fill-opacity="0.7" style="mix-blend-mode:lighten"/>
<path fill-rule="evenodd" clip-rule="evenodd" d="M38 20H66V24H38V20ZM30 28V24H38V28H30ZM26 32V28H30V32H26ZM26 64V32H22V64H18V76H22V80H26V84H30V88H34V92H42V96H66V92H70V88H74V84H78V32H74V28H70V24H66V28H70V32H74V84H70V88H66V92H42V88H34V84H30V80V76H22V64H26ZM26 64V68H30V64H26Z" fill="black"/>
<path fill-rule="evenodd" clip-rule="evenodd" d="M179 24H151V28H147H143V32H139V64H135V76H139H143V84H147V88H151H155V92H179V88H183V84H187V32H183V28H179V24Z" fill="#FAE6CE"/>
<path fill-rule="evenodd" clip-rule="evenodd" d="M159 24H179V28H183V32H175V28H159V24ZM183 32H187V64H183V32ZM139 32H143V64H139V32ZM147 84H143V72H139V68H143V64H147V84ZM159 88V84H147V88H155V92H179V88H159ZM143 32V28H147V32H143Z" fill="#714A1C" fill-opacity="0.25" style="mix-blend-mode:multiply"/>
<path fill-rule="evenodd" clip-rule="evenodd" d="M159 32H155V36H159V32ZM163 32H175V36H163V32ZM179 40V36H175V40H179ZM179 40V44H183V40H179ZM135 64H139V68H135V64Z" fill="#FFFCF9" fill-opacity="0.7" style="mix-blend-mode:lighten"/>
<path fill-rule="evenodd" clip-rule="evenodd" d="M155 64H167V68H155V64ZM167 80H175V84H167V80ZM183 64H175V68H183V64Z" fill="black"/>
<path d="M167 64H171V68H167V64Z" fill="#714A1C" fill-opacity="0.25" style="mix-blend-mode:multiply"/>
<path fill-rule="evenodd" clip-rule="evenodd" d="M151 20H179V24H151V20ZM143 28V24H151V28H143ZM139 32V28H143V32H139ZM139 64V32H135V64H131V76H135V80H139V84H143V88H147V92H155V96H179V92H183V88H187V84H191V32H187V28H183V24H179V28H183V32H187V84H183V88H179V92H155V88H147V84H143V80V76H135V64H139ZM139 64V68H143V64H139Z" fill="black"/>
<path fill-rule="evenodd" clip-rule="evenodd" d="M298 24H270V28H266H262V32H258V64H254V76H258H262V84H266V88H270H274V92H298V88H302V84H306V32H302V28H298V24Z" fill="#C09B79"/>
<path fill-rule="evenodd" clip-rule="evenodd" d="M278 24H298V28H302V32H294V28H278V24ZM302 32H306V64H302V32ZM258 32H262V64H258V32ZM266 84H262V72H258V68H262V64H266V84ZM278 88V84H266V88H274V92H298V88H278ZM262 32V28H266V32H262Z" fill="#714A1C" fill-opacity="0.25" style="mix-blend-mode:multiply"/>
<path fill-rule="evenodd" clip-rule="evenodd" d="M278 32H274V36H278V32ZM282 32H294V36H282V32ZM298 40V36H294V40H298ZM298 40V44H302V40H298ZM254 64H258V68H254V64Z" fill="#FFFCF9" fill-opacity="0.7" style="mix-blend-mode:lighten"/>
<path fill-rule="evenodd" clip-rule="evenodd" d="M278 64H282V68H278V64ZM286 80H294V84H286V80ZM298 64H294V68H298V64Z" fill="black"/>
<path fill-rule="evenodd" clip-rule="evenodd" d="M282 60H286V64H282V60ZM278 68H282V72H278V68ZM298 68H294V72H298V68Z" fill="#714A1C" fill-opacity="0.25" style="mix-blend-mode:multiply"/>
<path fill-rule="evenodd" clip-rule="evenodd" d="M270 20H298V24H270V20ZM262 28V24H270V28H262ZM258 32V28H262V32H258ZM258 64V32H254V64H250V76H254V80H258V84H262V88H266V92H274V96H298V92H302V88H306V84H310V32H306V28H302V24H298V28H302V32H306V84H302V88H298V92H274V88H266V84H262V80V76H254V64H258ZM258 64V68H262V64H258Z" fill="black"/>
<path fill-rule="evenodd" clip-rule="evenodd" d="M66 154H38V158H34H30V162H26V194H22V206H26H30V214H34V218H38H42V222H66V218H70V214H74V162H70V158H66V154Z" fill="#F3CCA7"/>
<path fill-rule="evenodd" clip-rule="evenodd" d="M46 154H66V158H70V162H62V158H46V154ZM70 162H74V194H70V162ZM26 162H30V194H26V162ZM34 214H30V202H26V198H30V194H34V214ZM46 218V214H34V218H42V222H66V218H46ZM30 162V158H34V162H30Z" fill="#714A1C" fill-opacity="0.25" style="mix-blend-mode:multiply"/>
<path fill-rule="evenodd" clip-rule="evenodd" d="M46 162H42V166H46V162ZM50 162H62V166H50V162ZM66 170V166H62V170H66ZM66 170V174H70V170H66ZM22 194H26V198H22V194Z" fill="#FFFCF9" fill-opacity="0.7" style="mix-blend-mode:lighten"/>
<path fill-rule="evenodd" clip-rule="evenodd" d="M46 190H50V202H46V190ZM54 210H62V214H54V210ZM66 190H62V202H66V190Z" fill="black"/>
<path d="M50 190H54V198H50V190Z" fill="#714A1C" fill-opacity="0.25" style="mix-blend-mode:multiply"/>
<path fill-rule="evenodd" clip-rule="evenodd" d="M38 150H66V154H38V150ZM30 158V154H38V158H30ZM26 162V158H30V162H26ZM26 194V162H22V194H18V206H22V210H26V214H30V218H34V222H42V226H66V222H70V218H74V214H78V162H74V158H70V154H66V158H70V162H74V214H70V218H66V222H42V218H34V214H30V210V206H22V194H26ZM26 194V198H30V194H26Z" fill="black"/>
<path fill-rule="evenodd" clip-rule="evenodd" d="M38 24H42H46H54H58V28H62H66V32H70H74V36H78V44H82V64H78V60H74V56H70V52H66H62V48H58H54V52H46V48H42V44H38V52H34V72H30V64H26V60H22V64H18V40H22V32H26V28H30H34H38V24Z" fill="#982613"/>
<path fill-rule="evenodd" clip-rule="evenodd" d="M26 28H30V32H26V28ZM34 52V72H30V64H26V60H22V64H18V40H22V32H26V40H30V52H34ZM38 44V52H34V44H38ZM42 44H38V40H42V44ZM46 48H42V44H46V48ZM54 48V52H46V48H54ZM62 48H54V44H62V48ZM70 52H62V48H70V52ZM78 48H74V52H70V56H74V60H78V64H82V44H78V48ZM78 36H74V40H78V36Z" fill="black" fill-opacity="0.2" style="mix-blend-mode:multiply"/>
<path fill-rule="evenodd" clip-rule="evenodd" d="M58 28H42V32H38V36H42V32H58V28Z" fill="white" fill-opacity="0.3" style="mix-blend-mode:lighten"/>
<path fill-rule="evenodd" clip-rule="evenodd" d="M38 20H58V24H38V20ZM26 28V24H38V28H26ZM22 32V28H26V32H22ZM18 40V32H22V40H18ZM18 40V64H14V40H18ZM66 28H58V24H66V28ZM74 32H66V28H74V32ZM78 36H74V32H78V36ZM82 44H78V36H82V44ZM82 64V44H86V64H82ZM78 64V68H82V64H78ZM78 64H74V60H78V64Z" fill="black"/>
<path fill-rule="evenodd" clip-rule="evenodd" d="M42 146H46V150H50V146H54V150H58V146H62V150H66V154H70V158H74H78V162H82V166H86V178H90V182H86H82V194H78V190H74V186H70V178H66V182H62H58H54V186H50H46H42H38V190H34V202H30V194H26V190H22V194H14V186H10V178H6V174H10V170H14V162H22V158H26V154H30H34V150H38H42V146Z" fill="#BA6434"/>
<path fill-rule="evenodd" clip-rule="evenodd" d="M46 150H50V154H46V150ZM26 158H22V162H26V158ZM26 158V154H30V158H26ZM18 162H14V170H10V174H6V178H10V186H14V194H18H22V190H26V194H30V202H34V190H38V186H54V182H62V178H66V174H70V170H66V174H62V178H54V182H38V186H34H30H26V182H22V174H18V162ZM58 150H54V154H58V150ZM62 150H66V154H62V150ZM70 158H66V154H70V158ZM70 158H74V166H70V158ZM78 182H74V190H78V194H82V190H78V182ZM78 162H82V166H78V162ZM86 178H82V182H86V178Z" fill="black" fill-opacity="0.2" style="mix-blend-mode:multiply"/>
<path fill-rule="evenodd" clip-rule="evenodd" d="M46 158H50V166H46V158ZM42 170V166H46V170H42ZM34 174V170H42V174H34ZM34 174V178H30V174H34ZM54 174V178H46V174H54ZM58 170H54V174H58V170ZM58 170V162H62V170H58ZM42 178H38V182H42V178Z" fill="white" fill-opacity="0.3" style="mix-blend-mode:lighten"/>
<path fill-rule="evenodd" clip-rule="evenodd" d="M46 142H42V146H34V150H26V154H22V158H14V162H10V170H6V174H2V178H6V186H10V194H14V198H18V194H14V190H18V186H14H10V182H14V178H10H6V174H10V170H14V162H22V158H26V154H34V150H42V146H46V150H50V146H54V150H58V146H62V150H66V154H70V158H78V162H82V166H86V170H82V174H86V178H90V182H86H82V194H78V190H74V194H78V198H82V194H86V186H90V182H94V178H90V174H86V170H90V166H86V162H82V158H78V154H70V150H66V146H62V142H58V146H54V142H50V146H46V142Z" fill="black"/>
<path fill-rule="evenodd" clip-rule="evenodd" d="M179 154H151V158H147H143V162H139V194H135V206H139H143V214H147V218H151H155V222H179V218H183V214H187V162H183V158H179V154Z" fill="#FAE6CE"/>
<path fill-rule="evenodd" clip-rule="evenodd" d="M159 154H179V158H183V162H175V158H159V154ZM183 162H187V194H183V162ZM139 162H143V194H139V162ZM147 214H143V202H139V198H143V194H147V214ZM159 218V214H147V218H155V222H179V218H159ZM143 162V158H147V162H143Z" fill="#714A1C" fill-opacity="0.25" style="mix-blend-mode:multiply"/>
<path fill-rule="evenodd" clip-rule="evenodd" d="M159 162H155V166H159V162ZM163 162H175V166H163V162ZM179 170V166H175V170H179ZM179 170V174H183V170H179ZM135 194H139V198H135V194Z" fill="#FFFCF9" fill-opacity="0.7" style="mix-blend-mode:lighten"/>
<path fill-rule="evenodd" clip-rule="evenodd" d="M159 190H163V194H159V190ZM159 194V198H155V194H159ZM163 194H167V198H163V194ZM175 210V214H167V210H175ZM179 190H175V194H171V198H175V194H179V198H183V194H179V190Z" fill="black"/>
<path fill-rule="evenodd" clip-rule="evenodd" d="M167 190H163V194H167V198H171V194H167V190Z" fill="#714A1C" fill-opacity="0.25" style="mix-blend-mode:multiply"/>
<path fill-rule="evenodd" clip-rule="evenodd" d="M151 150H179V154H151V150ZM143 158V154H151V158H143ZM139 162V158H143V162H139ZM139 194V162H135V194H131V206H135V210H139V214H143V218H147V222H155V226H179V222H183V218H187V214H191V162H187V158H183V154H179V158H183V162H187V214H183V218H179V222H155V218H147V214H143V210V206H135V194H139ZM139 194V198H143V194H139Z" fill="black"/>
<path fill-rule="evenodd" clip-rule="evenodd" d="M298 154H270V158H266H262V162H258V194H254V206H258H262V214H266V218H270H274V222H298V218H302V214H306V162H302V158H298V154Z" fill="#E0C6A6"/>
<path fill-rule="evenodd" clip-rule="evenodd" d="M278 154H298V158H302V162H294V158H278V154ZM302 162H306V194H302V162ZM258 162H262V194H258V162ZM266 214H262V202H258V198H262V194H266V214ZM278 218V214H266V218H274V222H298V218H278ZM262 162V158H266V162H262Z" fill="#714A1C" fill-opacity="0.25" style="mix-blend-mode:multiply"/>
<path fill-rule="evenodd" clip-rule="evenodd" d="M278 162H274V166H278V162ZM282 162H294V166H282V162ZM298 170V166H294V170H298ZM298 170V174H302V170H298ZM254 194H258V198H254V194Z" fill="#FFFCF9" fill-opacity="0.7" style="mix-blend-mode:lighten"/>
<path fill-rule="evenodd" clip-rule="evenodd" d="M286 186H282V190H274V194H282V190H286V186ZM278 198H282V202H278V198ZM286 210H294V214H286V210ZM298 186H294V190H298V194H302V190H298V186ZM294 198H298V202H294V198Z" fill="black"/>
<path fill-rule="evenodd" clip-rule="evenodd" d="M286 186H290V190H286V186ZM286 190V194H282V190H286ZM298 190H294V194H298V190Z" fill="#714A1C" fill-opacity="0.25" style="mix-blend-mode:multiply"/>
<path fill-rule="evenodd" clip-rule="evenodd" d="M270 150H298V154H270V150ZM262 158V154H270V158H262ZM258 162V158H262V162H258ZM258 194V162H254V194H250V206H254V210H258V214H262V218H266V222H274V226H298V222H302V218H306V214H310V162H306V158H302V154H298V158H302V162H306V214H302V218H298V222H274V218H266V214H262V210V206H254V194H258ZM258 194V198H262V194H258Z" fill="black"/>
<path fill-rule="evenodd" clip-rule="evenodd" d="M131 8H135H139V12H143V24H147H151H159H167H171H175H179H183V28H187V36H191V64H187V56H183V52H179V48H175V44H171V48H167V52H159V56H151V60H147V68H139V64H135V32H139V28H135V32H131V28H127V12H131V8Z" fill="#BBBCF6"/>
<path fill-rule="evenodd" clip-rule="evenodd" d="M131 12H127V28H131V32H135V64H139V68H143H147V60H151V56H159V52H167V48H171V44H175V48H179V52H183V56H187V64H191V36H187V40H183V36H179V28H175V36H171V44H167V48H159V52H151V56H147H143V60H139V36H143V28H151V24H143V28H139V32H135V24H131V12ZM175 36H179V40H183V48H179V44H175V36ZM187 48H183V52H187V48ZM159 36H155V40H147V44H143V52H147V44H155V40H159V36ZM159 36H163V32H159V36Z" fill="black" fill-opacity="0.2" style="mix-blend-mode:multiply"/>
<path fill-rule="evenodd" clip-rule="evenodd" d="M131 12H139V16H131V12ZM167 28H171V36H167V28ZM163 40V36H167V40H163ZM155 44H163V40H155V36H159V32H155V36H147V40H143V44H139V52H143V44H147V40H155V44ZM155 44V48H151V44H155ZM183 32H179V36H183V40H187V36H183V32ZM151 28H143V32H151V28Z" fill="white" fill-opacity="0.3" style="mix-blend-mode:lighten"/>
<path fill-rule="evenodd" clip-rule="evenodd" d="M143 8H131V12H127V16H123V28H127V32H131V64H135V32H139V28H135V32H131V28H127V16H131V12H143V20V24H183V28H187V36H191V64H195V36H191V28H187V24H183V20H147V12H143V8Z" fill="black"/>
<path fill-rule="evenodd" clip-rule="evenodd" d="M258 146H246V150H242V154H246H258V166H254V190H258V194H262V198H266V186H270V174H274V170H294H302V174H306V162H302V158H294V154H274H270H266H262H258V146Z" fill="#424242"/>
<path fill-rule="evenodd" clip-rule="evenodd" d="M258 146H246V150H242V154H246H258V166H254V190H258V194H262V198H266V186H270V170H274H302V174H306V162H302V166H274V162H270H266V158H270V154H266H262H258V146Z" fill="black" fill-opacity="0.2" style="mix-blend-mode:multiply"/>
<path fill-rule="evenodd" clip-rule="evenodd" d="M262 166H258V170H254V174H258V178H262V182H266V178H270V174H274V170H270V166H266V170H262V166ZM262 174V178H266V174H270V170H266V174H262ZM262 174V170H258V174H262Z" fill="white" fill-opacity="0.3" style="mix-blend-mode:lighten"/>
<path fill-rule="evenodd" clip-rule="evenodd" d="M262 150H258V154H254V158H258V154H262V150Z" fill="#EE4024"/>
<path d="M254 154H258V158H254V154Z" fill="black" fill-opacity="0.2" style="mix-blend-mode:multiply"/>
<path fill-rule="evenodd" clip-rule="evenodd" d="M250 138H246V146H242V142H238V150H234V154H242V158H238V162H246V158H254V166H250V194H254V166H258V158H254V154H242V150H246V146H250H258V150H262V154H294V158H302V162H306V178H310V162H306V158H302V154H294V150H262V146H258V142H250V138Z" fill="black"/>
<path fill-rule="evenodd" clip-rule="evenodd" d="M270 24H278H282H294H298V28H302V32H298V36H294V40H282V36H278V32H270V36H266V64H262H258V32H262V28H266H270V24ZM302 32V36H306V32H302Z" fill="#BCC1C8"/>
<path fill-rule="evenodd" clip-rule="evenodd" d="M266 28H262V32H258V64H262H266V32H270V28H266ZM306 32H302V36H306V32Z" fill="black" fill-opacity="0.2" style="mix-blend-mode:multiply"/>
<path fill-rule="evenodd" clip-rule="evenodd" d="M278 24H282V28H278V24ZM270 32H278V36H270V32ZM298 24H286V28H298V24Z" fill="white" fill-opacity="0.3" style="mix-blend-mode:lighten"/>
<path fill-rule="evenodd" clip-rule="evenodd" d="M151 150H147V154H143H139V158H135V170H131V194H135V202H139V198H143V202H147V178H151V186H159V182H163V178H167V174H171V170H183V174H187V190H191H195V170H191V162H187V154H183V150H171H167H163H159H151Z" fill="#96999B"/>
<path fill-rule="evenodd" clip-rule="evenodd" d="M183 150H179V158H183V174H187V190H191H195V170H191V162H187V154H183V150ZM167 154H171V158H175V162H179V170H175V166H171V162H167H163V158H167V154ZM163 178V170H167V166H171V174H167V178H163ZM134.905 194V202H139.095V198H143V202H147V178H151V186H155H159V182H163V178H159H155V174H151V170H147H143V162H139.095V158H134.905V170H131V194H134.905Z" fill="black" fill-opacity="0.2" style="mix-blend-mode:multiply"/>
<path fill-rule="evenodd" clip-rule="evenodd" d="M155 154H147V158H155V162H159V158H155V154ZM167 162H171V166H167V162ZM171 166V170H175V166H171Z" fill="white" fill-opacity="0.3" style="mix-blend-mode:lighten"/>
<path fill-rule="evenodd" clip-rule="evenodd" d="M147 146H183V150H147V146ZM139 154V150H147V154H139ZM135 158V154H139V158H135ZM131 170V158H135V170H131ZM131 170V194H135V206H131V202H127V170H131ZM187 154H183V150H187V154ZM191 162H187V154H191V162ZM195 170V162H191V170H195ZM195 190V170H199V190H195ZM195 190V198H191V190H195Z" fill="black"/>
<path fill-rule="evenodd" clip-rule="evenodd" d="M167 206H163V226H167H175H179V206H175H167ZM167 210V218H175V210H167Z" fill="#96999B"/>
<path fill-rule="evenodd" clip-rule="evenodd" d="M179 206H175V222H171V226H175H179V206Z" fill="black" fill-opacity="0.2" style="mix-blend-mode:multiply"/>
<path fill-rule="evenodd" clip-rule="evenodd" d="M183 222H179V226H163V230H179V226H183V222Z" fill="black"/>
<path fill-rule="evenodd" clip-rule="evenodd" d="M66 284H38V288H34H30V292H26V324H22V336H26H30V344H34V348H38H42V352H66V348H70V344H74V292H70V288H66V284Z" fill="#FAE6CE"/>
<path fill-rule="evenodd" clip-rule="evenodd" d="M46 284H66V288H70V292H62V288H46V284ZM70 292H74V324H70V292ZM26 292H30V324H26V292ZM34 344H30V332H26V328H30V324H34V344ZM46 348V344H34V348H42V352H66V348H46ZM30 292V288H34V292H30Z" fill="#714A1C" fill-opacity="0.25" style="mix-blend-mode:multiply"/>
<path fill-rule="evenodd" clip-rule="evenodd" d="M46 292H42V296H46V292ZM50 292H62V296H50V292ZM66 300V296H62V300H66ZM66 300V304H70V300H66ZM22 324H26V328H22V324Z" fill="#FFFCF9" fill-opacity="0.7" style="mix-blend-mode:lighten"/>
<path fill-rule="evenodd" clip-rule="evenodd" d="M54 320H42V324H46V332H50V324H54V320ZM54 340H62V344H54V340ZM54 340H50V336H54V340ZM62 320H66H70V324H66V332H62V320Z" fill="black"/>
<path fill-rule="evenodd" clip-rule="evenodd" d="M58 320H54V324H50V328H54V324H58V320Z" fill="#714A1C" fill-opacity="0.25" style="mix-blend-mode:multiply"/>
<path fill-rule="evenodd" clip-rule="evenodd" d="M38 280H66V284H38V280ZM30 288V284H38V288H30ZM26 292V288H30V292H26ZM26 324V292H22V324H18V336H22V340H26V344H30V348H34V352H42V356H66V352H70V348H74V344H78V292H74V288H70V284H66V288H70V292H74V344H70V348H66V352H42V348H34V344H30V340V336H22V324H26ZM26 324V328H30V324H26Z" fill="black"/>
<path fill-rule="evenodd" clip-rule="evenodd" d="M34 272H38H50H54H62V276H70H74V284H78V288H82V328H78V332H74V312H70H62H54V308H50V312H38V320H34V332H30V328H26H22H18V320H14V292H18V284H22V280H26V276H30H34V272Z" fill="#665D9E"/>
<path fill-rule="evenodd" clip-rule="evenodd" d="M34 272H62V276H66V272H70V276V280V284H66V280H62H38V296H34V312H38V320H34V332H30V328H26H22H18V320H14V292H18V284H22V280H26V288H22V300H18V312H22V308H26V316H30V292H34V284H30V280H26V276H34V272ZM50 308V312H38V308H50ZM74 288H78V314H82V324H78V332H74V312H58H54V308H50V304H54V300H58V308H66V300H70V308H74V288ZM74 288V284H70V288H74Z" fill="black" fill-opacity="0.2" style="mix-blend-mode:multiply"/>
<path fill-rule="evenodd" clip-rule="evenodd" d="M58 280H42V284H58V280ZM38 296V300H50V296H54V292H46V296H38ZM30 288H26V300H30V288ZM62 292H66V296H62V292ZM74 292H70V296H74V292Z" fill="white" fill-opacity="0.3" style="mix-blend-mode:lighten"/>
<path fill-rule="evenodd" clip-rule="evenodd" d="M62 268H34V272H26V276H22V280H18V284H14V292H10V324H14V328H18V332H30V336H34V332H30V328H18V320H14V292H18V284H22V280H26V276H34V272H62V276H70V280H74V284H78V288H82V328H78V332H74V336H78V332H82V328H86V288H82V284H78V280H74V276H70V272H62V268Z" fill="black"/>
<path fill-rule="evenodd" clip-rule="evenodd" d="M179 284H155H151V288H147H143V292H139V324H135V336H139H143V344H147V348H151H155V352H163V356H175V352H179V348H183V344H187V292H183V288H179V284Z" fill="#FAE6CE"/>
<path fill-rule="evenodd" clip-rule="evenodd" d="M179 284H159V288H175V292H183V324H187V292H183V288H179V284ZM143 292H139V324H143V328H139V332H143V344H147V348H155V352H163V356H175V352H179V348H159V344H147V324H143V292ZM143 292H147V288H143V292Z" fill="#714A1C" fill-opacity="0.25" style="mix-blend-mode:multiply"/>
<path fill-rule="evenodd" clip-rule="evenodd" d="M159 292H155V296H159V292ZM163 292H175V296H163V292ZM179 300V296H175V300H179ZM179 300V304H183V300H179ZM135 324H139V328H135V324Z" fill="#FFFCF9" fill-opacity="0.7" style="mix-blend-mode:lighten"/>
<path fill-rule="evenodd" clip-rule="evenodd" d="M159 320H163V324H159V320ZM159 324V328H155V324H159ZM163 324H167V328H163V324ZM175 340V348H167V340H175ZM179 320H175V324H171V328H175V324H179V328H183V324H179V320Z" fill="black"/>
<path fill-rule="evenodd" clip-rule="evenodd" d="M167 320H163V324H167V328H171V324H167V320Z" fill="#714A1C" fill-opacity="0.25" style="mix-blend-mode:multiply"/>
<path fill-rule="evenodd" clip-rule="evenodd" d="M151 280H179V284H151V280ZM143 288V284H151V288H143ZM139 292V288H143V292H139ZM139 324V292H135V324H131V336H135V340H139V344H143V348H147V352H155V356H163V360H175V356H179V352H183V348H187V344H191V292H187V288H183V284H179V288H183V292H187V344H183V348H179V352H175V356H163V352H155V348H147V344H143V340V336H135V324H139ZM139 324V328H143V324H139Z" fill="black"/>
<path fill-rule="evenodd" clip-rule="evenodd" d="M175 272H171V276H167V280H159H155H151H147V276H143H139H135H131V288H135V300H131V324H135V328H139V332H143V324H147V320H151V316H155V308H159V304H167H171H175H179V312H183V316H187V320H191V292H187V288H183V284V272H179H175ZM139 288H135V284H139V288Z" fill="#F9CD68"/>
<path fill-rule="evenodd" clip-rule="evenodd" d="M175 276H167V280H159V284H163V288H167V292H159V288H151V284H147V280H139V284H147V288H151V292H155V296H151H147V300H143V296H139V292H135V300H139V304H143V308H139V312H135V308H131V324H135V328H139V332H143V324H147V320H151V316H155V308H159V304H167H179V312H183V316H187V320H191V316H187V312H183V304H179V300H167H159V304H155V308H151V316H147V320H143V312H147V304H151V300H155V296H183H187V292H183H175V288H171V284H167V280H175V284H183V280H175V276ZM131 280H135V288H131V280Z" fill="black" fill-opacity="0.2" style="mix-blend-mode:multiply"/>
<path fill-rule="evenodd" clip-rule="evenodd" d="M183 272H175V276H183V272ZM143 276H135V280H143V276ZM163 300V296H155V300H151V304H147V308H151V304H155V300H163ZM167 280H175V284H167V280ZM175 284H183V288H175V284ZM159 280H151V284H159V288H163V284H159V280ZM147 284V288H139V284H147ZM147 288V292H151V288H147ZM183 296H179V300H183V308H187V312H191V308H187V300H183V296Z" fill="white" fill-opacity="0.3" style="mix-blend-mode:lighten"/>
<path fill-rule="evenodd" clip-rule="evenodd" d="M183 268H171V272H167V276H147V272H131V276H127V288H131V300H127V324H131V300H135V288H139V284H135V288H131V276H147V280H167V276H171V272H183V284V288H187V300H191V320H195V300H191V288H187V284V272H183V268Z" fill="black"/>
<path fill-rule="evenodd" clip-rule="evenodd" d="M298 284H270V288H266H262V292H258V324H254V336H258H262V344H266V348H270H274V352H298V348H302V344H306V292H302V288H298V284Z" fill="#5B4A3F"/>
<path fill-rule="evenodd" clip-rule="evenodd" d="M278 284H298V288H302V292H294V288H278V284ZM302 292H306V324H302V292ZM258 292H262V324H258V292ZM266 344H262V332H258V328H262V324H266V344ZM278 348V344H266V348H274V352H298V348H278ZM262 292V288H266V292H262Z" fill="#714A1C" fill-opacity="0.25" style="mix-blend-mode:multiply"/>
<path fill-rule="evenodd" clip-rule="evenodd" d="M278 292H274V296H278V292ZM282 292H294V296H282V292ZM298 300V296H294V300H298ZM298 300V304H302V300H298ZM254 324H258V328H254V324Z" fill="#FFFCF9" fill-opacity="0.7" style="mix-blend-mode:lighten"/>
<path fill-rule="evenodd" clip-rule="evenodd" d="M278 320H282V324H278V320ZM278 324V328H274V324H278ZM282 324H286V328H282V324ZM286 336V340H282V336H286ZM294 340V344H286V340H294ZM294 340H298V336H294V340ZM294 324H290V328H294V324ZM298 324H294V320H298V324ZM298 324V328H302V324H298Z" fill="black"/>
<path fill-rule="evenodd" clip-rule="evenodd" d="M286 320H282V324H286V328H290V324H286V320Z" fill="#714A1C" fill-opacity="0.25" style="mix-blend-mode:multiply"/>
<path fill-rule="evenodd" clip-rule="evenodd" d="M270 280H298V284H270V280ZM262 288V284H270V288H262ZM258 292V288H262V292H258ZM258 324V292H254V324H250V336H254V340H258V344H262V348H266V352H274V356H298V352H302V348H306V344H310V292H306V288H302V284H298V288H302V292H306V344H302V348H298V352H274V348H266V344H262V340V336H254V324H258ZM258 324V328H262V324H258Z" fill="black"/>
<path fill-rule="evenodd" clip-rule="evenodd" d="M262 328H266V340H274H282V336H286H294H298V340H302H306V344H302V348H298V352H294H286H282H274V348H266V344H262V328ZM286 340H294V348H292V344H288V348H286V340Z" fill="#424242"/>
<path fill-rule="evenodd" clip-rule="evenodd" d="M262 328H266V340H270V344H274V348H270H266V344H262V328ZM274 348V352H278V348H274ZM298 340H306V344H302V348H298V344V340ZM298 348V352H286V348H298Z" fill="black" fill-opacity="0.2" style="mix-blend-mode:multiply"/>
<path fill-rule="evenodd" clip-rule="evenodd" d="M270 284H266V288H262H258V292H254V312H258V328H262V336H266V304H270V300H278V304H282V308H294V304H298V300H302V308H306V296H302V288H298V284H294H282H278H270Z" fill="#424242"/>
<path fill-rule="evenodd" clip-rule="evenodd" d="M270 284H266V288H262H258V292H254V312H258V328H262V336H266V320H262V308H258V296H262V292H266H270V288H274V284H270ZM294 304H290V308H294V304ZM294 304V296H298V304H294ZM302 296H306V308H302V296Z" fill="black" fill-opacity="0.2" style="mix-blend-mode:multiply"/>
<path fill-rule="evenodd" clip-rule="evenodd" d="M298 288H294V292H290V296H282V300H290V296H294H298V288Z" fill="white" fill-opacity="0.3" style="mix-blend-mode:lighten"/>
<path fill-rule="evenodd" clip-rule="evenodd" d="M266 280H298V284H266V280ZM258 288V284H266V288H258ZM254 292V288H258V292H254ZM254 292V312H250V292H254ZM302 288H298V284H302V288ZM306 296V288H302V296H306ZM306 296V312H310V296H306Z" fill="black"/>
</svg>
