<svg width="320" height="362" viewBox="0 0 320 362" fill="none" xmlns="http://www.w3.org/2000/svg">
<g clip-path="url(#clip0)">
<g filter="url(#filter0_d)">
<rect width="248" height="276" rx="4" fill="#222222"/>
<rect y="30" width="248" height="24" fill="#18A0FB"/>
<path d="M33.1449 23H34.2898V18.7713H39.331V23H40.4759V13.5455H39.331V17.7557H34.2898V13.5455H33.1449V23ZM44.9679 23.1477C46.8883 23.1477 48.181 21.6889 48.181 19.4915C48.181 17.2756 46.8883 15.8168 44.9679 15.8168C43.0474 15.8168 41.7548 17.2756 41.7548 19.4915C41.7548 21.6889 43.0474 23.1477 44.9679 23.1477ZM44.9679 22.169C43.5091 22.169 42.8443 20.9134 42.8443 19.4915C42.8443 18.0696 43.5091 16.7955 44.9679 16.7955C46.4267 16.7955 47.0915 18.0696 47.0915 19.4915C47.0915 20.9134 46.4267 22.169 44.9679 22.169ZM52.1917 23.1477C54.1122 23.1477 55.4048 21.6889 55.4048 19.4915C55.4048 17.2756 54.1122 15.8168 52.1917 15.8168C50.2713 15.8168 48.9787 17.2756 48.9787 19.4915C48.9787 21.6889 50.2713 23.1477 52.1917 23.1477ZM52.1917 22.169C50.7329 22.169 50.0681 20.9134 50.0681 19.4915C50.0681 18.0696 50.7329 16.7955 52.1917 16.7955C53.6505 16.7955 54.3153 18.0696 54.3153 19.4915C54.3153 20.9134 53.6505 22.169 52.1917 22.169ZM59.2124 23.1477C60.5789 23.1477 61.0406 22.2983 61.2806 21.9105H61.4099V23H62.4624V13.5455H61.3729V17.0355H61.2806C61.0406 16.6662 60.6158 15.8168 59.2309 15.8168C57.4397 15.8168 56.2025 17.2386 56.2025 19.473C56.2025 21.7259 57.4397 23.1477 59.2124 23.1477ZM59.3602 22.169C57.9937 22.169 57.292 20.9688 57.292 19.4545C57.292 17.9588 57.9752 16.7955 59.3602 16.7955C60.6897 16.7955 61.3914 17.8665 61.3914 19.4545C61.3914 21.0611 60.6712 22.169 59.3602 22.169ZM64.0761 23H65.1656V15.9091H64.0761V23ZM64.6301 14.7273C65.0548 14.7273 65.4056 14.3949 65.4056 13.9886C65.4056 13.5824 65.0548 13.25 64.6301 13.25C64.2054 13.25 63.8545 13.5824 63.8545 13.9886C63.8545 14.3949 64.2054 14.7273 64.6301 14.7273ZM69.6011 23.1477C71.0414 23.1477 72.094 22.4276 72.4264 21.3565L71.3738 21.0611C71.0968 21.7997 70.4551 22.169 69.6011 22.169C68.3223 22.169 67.4406 21.3427 67.3898 19.8239H72.5371V19.3622C72.5371 16.7216 70.9675 15.8168 69.4903 15.8168C67.5698 15.8168 66.2957 17.331 66.2957 19.5099C66.2957 21.6889 67.5514 23.1477 69.6011 23.1477ZM67.3898 18.8821C67.4636 17.7788 68.2438 16.7955 69.4903 16.7955C70.6721 16.7955 71.4292 17.6818 71.4292 18.8821H67.3898Z" fill="white"/>
<path d="M36.7642 37.5455V44.304C36.7642 45.4812 36.201 46.1136 35.2131 46.1136C34.3129 46.1136 33.6619 45.5874 33.6619 44.7841H32.5355C32.5355 46.2383 33.6619 47.1293 35.2131 47.1293C36.8565 47.1293 37.9091 46.1183 37.9091 44.304V37.5455H36.7642ZM41.6094 47.1662C42.8466 47.1662 43.4929 46.5014 43.7145 46.0398H43.7699V47H44.8594V42.3281C44.8594 40.0753 43.1421 39.8168 42.2372 39.8168C41.1662 39.8168 39.9475 40.1861 39.3935 41.4787L40.4276 41.848C40.6676 41.331 41.2355 40.777 42.2742 40.777C43.2759 40.777 43.7699 41.3079 43.7699 42.2173V42.2543C43.7699 42.7805 43.2344 42.7344 41.9418 42.9006C40.6261 43.0714 39.1904 43.3622 39.1904 44.9872C39.1904 46.3722 40.2614 47.1662 41.6094 47.1662ZM41.7756 46.1875C40.9077 46.1875 40.2799 45.7997 40.2799 45.0426C40.2799 44.2116 41.037 43.9531 41.8864 43.8423C42.348 43.7869 43.5853 43.6577 43.7699 43.4361V44.4332C43.7699 45.3196 43.0682 46.1875 41.7756 46.1875ZM49.1956 47.1477C50.7652 47.1477 51.7993 46.1875 51.984 44.9318H50.8945C50.6914 45.7074 50.0451 46.169 49.1956 46.169C47.903 46.169 47.0721 45.098 47.0721 43.4545C47.0721 41.848 47.9215 40.7955 49.1956 40.7955C50.1559 40.7955 50.7283 41.3864 50.8945 42.0327H51.984C51.7993 40.7031 50.6729 39.8168 49.1772 39.8168C47.2567 39.8168 45.9826 41.331 45.9826 43.4915C45.9826 45.6151 47.2013 47.1477 49.1956 47.1477ZM53.0437 47H54.1332V44.3455L54.8949 43.6392L57.5493 47H58.9343L55.7166 42.9375L58.7127 39.9091H57.3647L54.2624 43.0668H54.1332V37.5455H53.0437V47ZM62.263 47.1477C63.7033 47.1477 64.7559 46.4276 65.0883 45.3565L64.0357 45.0611C63.7587 45.7997 63.117 46.169 62.263 46.169C60.9842 46.169 60.1025 45.3427 60.0517 43.8239H65.1991V43.3622C65.1991 40.7216 63.6295 39.8168 62.1522 39.8168C60.2317 39.8168 58.9576 41.331 58.9576 43.5099C58.9576 45.6889 60.2133 47.1477 62.263 47.1477ZM60.0517 42.8821C60.1255 41.7788 60.9057 40.7955 62.1522 40.7955C63.334 40.7955 64.0911 41.6818 64.0911 42.8821H60.0517ZM69.4072 39.9091H67.893V38.2102H66.8035V39.9091H65.7325V40.8324H66.8035V45.2642C66.8035 46.5014 67.8006 47.0923 68.7239 47.0923C69.1302 47.0923 69.3887 47.0185 69.5364 46.9631L69.3148 45.9844C69.2225 46.0028 69.0748 46.0398 68.8347 46.0398C68.3546 46.0398 67.893 45.892 67.893 44.9688V40.8324H69.4072V39.9091ZM75.2428 47H76.3138L77.865 41.5526H77.9758L79.5269 47H80.5979L82.7584 39.9091H81.6136L80.0809 45.3196H80.007L78.5113 39.9091H77.3479L75.8337 45.3381H75.7599L74.2272 39.9091H73.0823L75.2428 47ZM87.8785 42.7344C87.8785 41.4972 88.6679 40.7955 89.7436 40.7955C90.7684 40.7955 91.387 41.4418 91.387 42.5682V47H92.4765V42.4943C92.4765 40.6708 91.5071 39.8168 90.0575 39.8168C88.9403 39.8168 88.3032 40.283 87.9708 41.017H87.8785V37.5455H86.789V47H87.8785V42.7344ZM96.8174 47.1477C98.7378 47.1477 100.03 45.6889 100.03 43.4915C100.03 41.2756 98.7378 39.8168 96.8174 39.8168C94.8969 39.8168 93.6043 41.2756 93.6043 43.4915C93.6043 45.6889 94.8969 47.1477 96.8174 47.1477ZM96.8174 46.169C95.3586 46.169 94.6938 44.9134 94.6938 43.4915C94.6938 42.0696 95.3586 40.7955 96.8174 40.7955C98.2762 40.7955 98.941 42.0696 98.941 43.4915C98.941 44.9134 98.2762 46.169 96.8174 46.169ZM104.041 47.1477C105.962 47.1477 107.254 45.6889 107.254 43.4915C107.254 41.2756 105.962 39.8168 104.041 39.8168C102.121 39.8168 100.828 41.2756 100.828 43.4915C100.828 45.6889 102.121 47.1477 104.041 47.1477ZM104.041 46.169C102.582 46.169 101.918 44.9134 101.918 43.4915C101.918 42.0696 102.582 40.7955 104.041 40.7955C105.5 40.7955 106.165 42.0696 106.165 43.4915C106.165 44.9134 105.5 46.169 104.041 46.169ZM111.062 47.1477C112.428 47.1477 112.89 46.2983 113.13 45.9105H113.259V47H114.312V37.5455H113.222V41.0355H113.13C112.89 40.6662 112.465 39.8168 111.08 39.8168C109.289 39.8168 108.052 41.2386 108.052 43.473C108.052 45.7259 109.289 47.1477 111.062 47.1477ZM111.21 46.169C109.843 46.169 109.141 44.9688 109.141 43.4545C109.141 41.9588 109.825 40.7955 111.21 40.7955C112.539 40.7955 113.241 41.8665 113.241 43.4545C113.241 45.0611 112.521 46.169 111.21 46.169ZM115.926 47H117.015V39.9091H115.926V47ZM116.48 38.7273C116.904 38.7273 117.255 38.3949 117.255 37.9886C117.255 37.5824 116.904 37.25 116.48 37.25C116.055 37.25 115.704 37.5824 115.704 37.9886C115.704 38.3949 116.055 38.7273 116.48 38.7273ZM121.451 47.1477C122.891 47.1477 123.943 46.4276 124.276 45.3565L123.223 45.0611C122.946 45.7997 122.305 46.169 121.451 46.169C120.172 46.169 119.29 45.3427 119.239 43.8239H124.387V43.3622C124.387 40.7216 122.817 39.8168 121.34 39.8168C119.419 39.8168 118.145 41.331 118.145 43.5099C118.145 45.6889 119.401 47.1477 121.451 47.1477ZM119.239 42.8821C119.313 41.7788 120.093 40.7955 121.34 40.7955C122.522 40.7955 123.279 41.6818 123.279 42.8821H119.239Z" fill="white"/>
<path d="M36.7642 61.5455V68.304C36.7642 69.4812 36.201 70.1136 35.2131 70.1136C34.3129 70.1136 33.6619 69.5874 33.6619 68.7841H32.5355C32.5355 70.2383 33.6619 71.1293 35.2131 71.1293C36.8565 71.1293 37.9091 70.1183 37.9091 68.304V61.5455H36.7642ZM41.6094 71.1662C42.8466 71.1662 43.4929 70.5014 43.7145 70.0398H43.7699V71H44.8594V66.3281C44.8594 64.0753 43.1421 63.8168 42.2372 63.8168C41.1662 63.8168 39.9475 64.1861 39.3935 65.4787L40.4276 65.848C40.6676 65.331 41.2355 64.777 42.2742 64.777C43.2759 64.777 43.7699 65.3079 43.7699 66.2173V66.2543C43.7699 66.7805 43.2344 66.7344 41.9418 66.9006C40.6261 67.0714 39.1904 67.3622 39.1904 68.9872C39.1904 70.3722 40.2614 71.1662 41.6094 71.1662ZM41.7756 70.1875C40.9077 70.1875 40.2799 69.7997 40.2799 69.0426C40.2799 68.2116 41.037 67.9531 41.8864 67.8423C42.348 67.7869 43.5853 67.6577 43.7699 67.4361V68.4332C43.7699 69.3196 43.0682 70.1875 41.7756 70.1875ZM49.1956 71.1477C50.7652 71.1477 51.7993 70.1875 51.984 68.9318H50.8945C50.6914 69.7074 50.0451 70.169 49.1956 70.169C47.903 70.169 47.0721 69.098 47.0721 67.4545C47.0721 65.848 47.9215 64.7955 49.1956 64.7955C50.1559 64.7955 50.7283 65.3864 50.8945 66.0327H51.984C51.7993 64.7031 50.6729 63.8168 49.1772 63.8168C47.2567 63.8168 45.9826 65.331 45.9826 67.4915C45.9826 69.6151 47.2013 71.1477 49.1956 71.1477ZM53.0437 71H54.1332V68.3455L54.8949 67.6392L57.5493 71H58.9343L55.7166 66.9375L58.7127 63.9091H57.3647L54.2624 67.0668H54.1332V61.5455H53.0437V71ZM62.263 71.1477C63.7033 71.1477 64.7559 70.4276 65.0883 69.3565L64.0357 69.0611C63.7587 69.7997 63.117 70.169 62.263 70.169C60.9842 70.169 60.1025 69.3427 60.0517 67.8239H65.1991V67.3622C65.1991 64.7216 63.6295 63.8168 62.1522 63.8168C60.2317 63.8168 58.9576 65.331 58.9576 67.5099C58.9576 69.6889 60.2133 71.1477 62.263 71.1477ZM60.0517 66.8821C60.1255 65.7788 60.9057 64.7955 62.1522 64.7955C63.334 64.7955 64.0911 65.6818 64.0911 66.8821H60.0517ZM69.4072 63.9091H67.893V62.2102H66.8035V63.9091H65.7325V64.8324H66.8035V69.2642C66.8035 70.5014 67.8006 71.0923 68.7239 71.0923C69.1302 71.0923 69.3887 71.0185 69.5364 70.9631L69.3148 69.9844C69.2225 70.0028 69.0748 70.0398 68.8347 70.0398C68.3546 70.0398 67.893 69.892 67.893 68.9688V64.8324H69.4072V63.9091Z" fill="white"/>
<path d="M33.1449 95H38.6847V93.9844H34.2898V85.5455H33.1449V95ZM42.6573 95.1477C44.5778 95.1477 45.8704 93.6889 45.8704 91.4915C45.8704 89.2756 44.5778 87.8168 42.6573 87.8168C40.7369 87.8168 39.4443 89.2756 39.4443 91.4915C39.4443 93.6889 40.7369 95.1477 42.6573 95.1477ZM42.6573 94.169C41.1985 94.169 40.5338 92.9134 40.5338 91.4915C40.5338 90.0696 41.1985 88.7955 42.6573 88.7955C44.1161 88.7955 44.7809 90.0696 44.7809 91.4915C44.7809 92.9134 44.1161 94.169 42.6573 94.169ZM48.09 90.7344C48.09 89.4972 48.8563 88.7955 49.8996 88.7955C50.9107 88.7955 51.5246 89.4556 51.5246 90.5682V95H52.6141V90.4943C52.6141 88.6847 51.6493 87.8168 50.2136 87.8168C49.1425 87.8168 48.4778 88.2969 48.1454 89.017H48.0531V87.9091H47.0005V95H48.09V90.7344ZM56.9342 97.8068C58.6331 97.8068 59.9995 97.0312 59.9995 95.2031V87.9091H58.947V89.0355H58.8362C58.5961 88.6662 58.153 87.8168 56.768 87.8168C54.9768 87.8168 53.7396 89.2386 53.7396 91.4176C53.7396 93.6335 55.0322 94.8892 56.7495 94.8892C58.1345 94.8892 58.5777 94.0767 58.8177 93.6889H58.9101V95.1293C58.9101 96.3111 58.0791 96.8466 56.9342 96.8466C55.6462 96.8466 55.1938 96.168 54.903 95.7756L54.0351 96.3849C54.4782 97.1282 55.3508 97.8068 56.9342 97.8068ZM56.8973 93.9105C55.5308 93.9105 54.8291 92.8764 54.8291 91.3991C54.8291 89.9588 55.5123 88.7955 56.8973 88.7955C58.2268 88.7955 58.9285 89.8665 58.9285 91.3991C58.9285 92.9688 58.2084 93.9105 56.8973 93.9105ZM66.4836 89.4972C66.142 88.4908 65.3756 87.8168 63.9722 87.8168C62.4765 87.8168 61.3685 88.6662 61.3685 89.8665C61.3685 90.8452 61.9502 91.5007 63.2521 91.8054L64.4339 92.0824C65.1494 92.2486 65.4864 92.5902 65.4864 93.0795C65.4864 93.6889 64.8401 94.1875 63.8245 94.1875C62.9335 94.1875 62.3749 93.8043 62.181 93.0426L61.1469 93.3011C61.4008 94.506 62.3934 95.1477 63.843 95.1477C65.491 95.1477 66.6129 94.2475 66.6129 93.0241C66.6129 92.0362 65.9942 91.413 64.7293 91.1037L63.6768 90.8452C62.8366 90.6374 62.458 90.3558 62.458 89.8111C62.458 89.2017 63.1043 88.7585 63.9722 88.7585C64.9232 88.7585 65.3156 89.2848 65.5049 89.7741L66.4836 89.4972ZM68.8093 90.7344C68.8093 89.4972 69.5988 88.7955 70.6744 88.7955C71.6993 88.7955 72.3179 89.4418 72.3179 90.5682V95H73.4074V90.4943C73.4074 88.6708 72.4379 87.8168 70.9883 87.8168C69.8711 87.8168 69.2341 88.283 68.9017 89.017H68.8093V85.5455H67.7199V95H68.8093V90.7344ZM74.8675 95H75.957V87.9091H74.8675V95ZM75.4215 86.7273C75.8462 86.7273 76.1971 86.3949 76.1971 85.9886C76.1971 85.5824 75.8462 85.25 75.4215 85.25C74.9968 85.25 74.6459 85.5824 74.6459 85.9886C74.6459 86.3949 74.9968 86.7273 75.4215 86.7273ZM77.4195 95H78.509V90.5128C78.509 89.5526 79.2661 88.8509 80.3002 88.8509C80.591 88.8509 80.8911 88.9062 80.9649 88.9247V87.8168C80.8403 87.8075 80.5541 87.7983 80.3925 87.7983C79.5431 87.7983 78.8044 88.2784 78.5459 88.9801H78.472V87.9091H77.4195V95ZM85.2515 87.9091H83.7373V86.2102H82.6478V87.9091H81.5768V88.8324H82.6478V93.2642C82.6478 94.5014 83.645 95.0923 84.5683 95.0923C84.9745 95.0923 85.2331 95.0185 85.3808 94.9631L85.1592 93.9844C85.0669 94.0028 84.9192 94.0398 84.6791 94.0398C84.199 94.0398 83.7373 93.892 83.7373 92.9688V88.8324H85.2515V87.9091Z" fill="white"/>
<path d="M40.642 109.545H39.5156V116.987H39.4233L34.2528 109.545H33.1449V119H34.2898V111.577H34.3821L39.5341 119H40.642V109.545ZM46.721 116.101C46.721 117.43 45.7054 118.04 44.8929 118.04C43.988 118.04 43.3417 117.375 43.3417 116.341V111.909H42.2522V116.415C42.2522 118.224 43.2125 119.092 44.542 119.092C45.613 119.092 46.3147 118.52 46.6471 117.8H46.721V119H47.8105V111.909H46.721V116.101ZM51.9505 119.148C53.317 119.148 53.7786 118.298 54.0187 117.911H54.148V119H55.2005V109.545H54.111V113.036H54.0187C53.7786 112.666 53.3539 111.817 51.969 111.817C50.1778 111.817 48.9406 113.239 48.9406 115.473C48.9406 117.726 50.1778 119.148 51.9505 119.148ZM52.0982 118.169C50.7318 118.169 50.0301 116.969 50.0301 115.455C50.0301 113.959 50.7133 112.795 52.0982 112.795C53.4278 112.795 54.1295 113.866 54.1295 115.455C54.1295 117.061 53.4093 118.169 52.0982 118.169ZM59.7872 119.148C61.2275 119.148 62.2801 118.428 62.6125 117.357L61.5599 117.061C61.2829 117.8 60.6412 118.169 59.7872 118.169C58.5084 118.169 57.6267 117.343 57.5759 115.824H62.7233V115.362C62.7233 112.722 61.1537 111.817 59.6764 111.817C57.7559 111.817 56.4818 113.331 56.4818 115.51C56.4818 117.689 57.7375 119.148 59.7872 119.148ZM57.5759 114.882C57.6498 113.779 58.4299 112.795 59.6764 112.795C60.8582 112.795 61.6153 113.682 61.6153 114.882H57.5759Z" fill="white"/>
<path d="M38.3153 135.909H39.4233C39.3725 134.483 38.0568 133.416 36.2287 133.416C34.419 133.416 32.9972 134.469 32.9972 136.057C32.9972 137.331 33.9205 138.088 35.3977 138.513L36.5611 138.845C37.5582 139.122 38.4446 139.473 38.4446 140.415C38.4446 141.449 37.4474 142.132 36.1364 142.132C35.0099 142.132 34.0128 141.634 33.9205 140.562H32.7386C32.8494 142.114 34.1051 143.166 36.1364 143.166C38.3153 143.166 39.5526 141.966 39.5526 140.433C39.5526 138.661 37.8722 138.088 36.8935 137.83L35.9332 137.571C35.2315 137.386 34.1051 137.017 34.1051 136.001C34.1051 135.097 34.9361 134.432 36.1918 134.432C37.3366 134.432 38.2045 134.977 38.3153 135.909ZM41.8437 138.734C41.8437 137.497 42.6331 136.795 43.7087 136.795C44.7336 136.795 45.3522 137.442 45.3522 138.568V143H46.4417V138.494C46.4417 136.671 45.4722 135.817 44.0227 135.817C42.9055 135.817 42.2684 136.283 41.936 137.017H41.8437V133.545H40.7542V143H41.8437V138.734ZM47.9019 143H48.9914V135.909H47.9019V143ZM48.4558 134.727C48.8806 134.727 49.2314 134.395 49.2314 133.989C49.2314 133.582 48.8806 133.25 48.4558 133.25C48.0311 133.25 47.6803 133.582 47.6803 133.989C47.6803 134.395 48.0311 134.727 48.4558 134.727ZM50.4538 143H51.5433V138.513C51.5433 137.553 52.3004 136.851 53.3345 136.851C53.6253 136.851 53.9254 136.906 53.9993 136.925V135.817C53.8746 135.808 53.5884 135.798 53.4268 135.798C52.5774 135.798 51.8388 136.278 51.5802 136.98H51.5064V135.909H50.4538V143ZM58.2859 135.909H56.7717V134.21H55.6822V135.909H54.6112V136.832H55.6822V141.264C55.6822 142.501 56.6793 143.092 57.6026 143.092C58.0089 143.092 58.2674 143.018 58.4151 142.963L58.1936 141.984C58.1012 142.003 57.9535 142.04 57.7134 142.04C57.2333 142.04 56.7717 141.892 56.7717 140.969V136.832H58.2859V135.909ZM64.38 143H65.5619L67.6485 135.466H67.7224L69.809 143H70.9908L73.5761 133.545H72.4127L70.4369 141.246H70.3445L68.3317 133.545H67.0391L65.0263 141.246H64.934L62.9582 133.545H61.7948L64.38 143ZM74.3218 143H75.4113V135.909H74.3218V143ZM74.8758 134.727C75.3005 134.727 75.6514 134.395 75.6514 133.989C75.6514 133.582 75.3005 133.25 74.8758 133.25C74.4511 133.25 74.1002 133.582 74.1002 133.989C74.1002 134.395 74.4511 134.727 74.8758 134.727ZM79.5513 143.148C80.9178 143.148 81.3795 142.298 81.6195 141.911H81.7488V143H82.8013V133.545H81.7119V137.036H81.6195C81.3795 136.666 80.9548 135.817 79.5698 135.817C77.7786 135.817 76.5414 137.239 76.5414 139.473C76.5414 141.726 77.7786 143.148 79.5513 143.148ZM79.6991 142.169C78.3326 142.169 77.6309 140.969 77.6309 139.455C77.6309 137.959 78.3141 136.795 79.6991 136.795C81.0286 136.795 81.7303 137.866 81.7303 139.455C81.7303 141.061 81.0101 142.169 79.6991 142.169ZM87.388 143.148C88.8284 143.148 89.8809 142.428 90.2133 141.357L89.1607 141.061C88.8838 141.8 88.2421 142.169 87.388 142.169C86.1092 142.169 85.2275 141.343 85.1767 139.824H90.3241V139.362C90.3241 136.722 88.7545 135.817 87.2772 135.817C85.3568 135.817 84.0826 137.331 84.0826 139.51C84.0826 141.689 85.3383 143.148 87.388 143.148ZM85.1767 138.882C85.2506 137.779 86.0308 136.795 87.2772 136.795C88.459 136.795 89.2161 137.682 89.2161 138.882H85.1767Z" fill="white"/>
<path d="M38.3153 159.909H39.4233C39.3725 158.483 38.0568 157.416 36.2287 157.416C34.419 157.416 32.9972 158.469 32.9972 160.057C32.9972 161.331 33.9205 162.088 35.3977 162.513L36.5611 162.845C37.5582 163.122 38.4446 163.473 38.4446 164.415C38.4446 165.449 37.4474 166.132 36.1364 166.132C35.0099 166.132 34.0128 165.634 33.9205 164.562H32.7386C32.8494 166.114 34.1051 167.166 36.1364 167.166C38.3153 167.166 39.5526 165.966 39.5526 164.433C39.5526 162.661 37.8722 162.088 36.8935 161.83L35.9332 161.571C35.2315 161.386 34.1051 161.017 34.1051 160.001C34.1051 159.097 34.9361 158.432 36.1918 158.432C37.3366 158.432 38.2045 158.977 38.3153 159.909ZM45.2229 164.101C45.2229 165.43 44.2073 166.04 43.3948 166.04C42.49 166.04 41.8437 165.375 41.8437 164.341V159.909H40.7542V164.415C40.7542 166.224 41.7144 167.092 43.044 167.092C44.115 167.092 44.8167 166.52 45.1491 165.8H45.2229V167H46.3124V159.909H45.2229V164.101ZM47.7749 167H48.8644V159.909H47.7749V167ZM48.3289 158.727C48.7536 158.727 49.1045 158.395 49.1045 157.989C49.1045 157.582 48.7536 157.25 48.3289 157.25C47.9042 157.25 47.5533 157.582 47.5533 157.989C47.5533 158.395 47.9042 158.727 48.3289 158.727ZM53.4107 159.909H51.8965V158.21H50.807V159.909H49.736V160.832H50.807V165.264C50.807 166.501 51.8041 167.092 52.7274 167.092C53.1337 167.092 53.3922 167.018 53.5399 166.963L53.3183 165.984C53.226 166.003 53.0783 166.04 52.8382 166.04C52.3581 166.04 51.8965 165.892 51.8965 164.969V160.832H53.4107V159.909Z" fill="white"/>
<path d="M32.6278 182.561H35.6009V191H36.7457V182.561H39.7188V181.545H32.6278V182.561ZM43.9026 185.765H39.7663V186.781H43.9026V185.765ZM50.6048 183.909H51.7128C51.662 182.483 50.3463 181.416 48.5182 181.416C46.7085 181.416 45.2866 182.469 45.2866 184.057C45.2866 185.331 46.2099 186.088 47.6872 186.513L48.8505 186.845C49.8477 187.122 50.7341 187.473 50.7341 188.415C50.7341 189.449 49.7369 190.132 48.4258 190.132C47.2994 190.132 46.3023 189.634 46.2099 188.562H45.0281C45.1389 190.114 46.3946 191.166 48.4258 191.166C50.6048 191.166 51.842 189.966 51.842 188.433C51.842 186.661 50.1616 186.088 49.1829 185.83L48.2227 185.571C47.521 185.386 46.3946 185.017 46.3946 184.001C46.3946 183.097 47.2255 182.432 48.4812 182.432C49.6261 182.432 50.494 182.977 50.6048 183.909ZM54.1332 186.734C54.1332 185.497 54.9226 184.795 55.9982 184.795C57.0231 184.795 57.6417 185.442 57.6417 186.568V191H58.7312V186.494C58.7312 184.671 57.7617 183.817 56.3121 183.817C55.1949 183.817 54.5579 184.283 54.2255 185.017H54.1332V181.545H53.0437V191H54.1332V186.734ZM60.1913 191H61.2808V183.909H60.1913V191ZM60.7453 182.727C61.17 182.727 61.5209 182.395 61.5209 181.989C61.5209 181.582 61.17 181.25 60.7453 181.25C60.3206 181.25 59.9697 181.582 59.9697 181.989C59.9697 182.395 60.3206 182.727 60.7453 182.727ZM62.7433 191H63.8328V186.513C63.8328 185.553 64.5899 184.851 65.624 184.851C65.9148 184.851 66.2149 184.906 66.2887 184.925V183.817C66.1641 183.808 65.8779 183.798 65.7163 183.798C64.8669 183.798 64.1282 184.278 63.8697 184.98H63.7958V183.909H62.7433V191ZM70.5754 183.909H69.0611V182.21H67.9717V183.909H66.9006V184.832H67.9717V189.264C67.9717 190.501 68.9688 191.092 69.8921 191.092C70.2984 191.092 70.5569 191.018 70.7046 190.963L70.483 189.984C70.3907 190.003 70.243 190.04 70.0029 190.04C69.5228 190.04 69.0611 189.892 69.0611 188.969V184.832H70.5754V183.909ZM76.411 191H77.482L79.0331 185.553H79.1439L80.6951 191H81.7661L83.9266 183.909H82.7817L81.2491 189.32H81.1752L79.6794 183.909H78.5161L77.0019 189.338H76.928L75.3954 183.909H74.2505L76.411 191ZM84.8339 191H85.9234V183.909H84.8339V191ZM85.3879 182.727C85.8126 182.727 86.1635 182.395 86.1635 181.989C86.1635 181.582 85.8126 181.25 85.3879 181.25C84.9632 181.25 84.6124 181.582 84.6124 181.989C84.6124 182.395 84.9632 182.727 85.3879 182.727ZM90.4697 183.909H88.9555V182.21H87.866V183.909H86.795V184.832H87.866V189.264C87.866 190.501 88.8632 191.092 89.7865 191.092C90.1927 191.092 90.4512 191.018 90.599 190.963L90.3774 189.984C90.2851 190.003 90.1373 190.04 89.8973 190.04C89.4172 190.04 88.9555 189.892 88.9555 188.969V184.832H90.4697V183.909ZM92.8174 186.734C92.8174 185.497 93.6068 184.795 94.6825 184.795C95.7073 184.795 96.3259 185.442 96.3259 186.568V191H97.4154V186.494C97.4154 184.671 96.4459 183.817 94.9964 183.817C93.8792 183.817 93.2421 184.283 92.9097 185.017H92.8174V181.545H91.7279V191H92.8174V186.734ZM102.147 191H105.563C107.797 191 108.72 189.911 108.72 188.489C108.72 186.993 107.686 186.18 106.818 186.125V186.033C107.631 185.811 108.351 185.276 108.351 184.057C108.351 182.672 107.428 181.545 105.452 181.545H102.147V191ZM103.291 189.984V186.697H105.618C106.855 186.697 107.631 187.528 107.631 188.489C107.631 189.32 107.058 189.984 105.563 189.984H103.291ZM103.291 185.7V182.561H105.452C106.708 182.561 107.262 183.226 107.262 184.057C107.262 185.054 106.449 185.7 105.415 185.7H103.291ZM112.894 191.148C114.334 191.148 115.387 190.428 115.719 189.357L114.667 189.061C114.39 189.8 113.748 190.169 112.894 190.169C111.615 190.169 110.733 189.343 110.683 187.824H115.83V187.362C115.83 184.722 114.26 183.817 112.783 183.817C110.863 183.817 109.589 185.331 109.589 187.51C109.589 189.689 110.844 191.148 112.894 191.148ZM110.683 186.882C110.756 185.779 111.537 184.795 112.783 184.795C113.965 184.795 114.722 185.682 114.722 186.882H110.683ZM118.044 181.545H116.954V191H118.044V181.545ZM120.596 181.545H119.506V191H120.596V181.545ZM122.76 193.641C123.743 193.641 124.44 193.119 124.847 192.034L127.866 183.928L126.675 183.909L124.717 189.56H124.643L122.686 183.909H121.504L124.126 191.037L123.923 191.591C123.536 192.653 123.037 192.754 122.243 192.551L121.966 193.511C122.077 193.567 122.391 193.641 122.76 193.641Z" fill="white"/>
<path d="M32.6278 206.561H35.6009V215H36.7457V206.561H39.7188V205.545H32.6278V206.561ZM43.9026 209.765H39.7663V210.781H43.9026V209.765ZM50.6048 207.909H51.7128C51.662 206.483 50.3463 205.416 48.5182 205.416C46.7085 205.416 45.2866 206.469 45.2866 208.057C45.2866 209.331 46.2099 210.088 47.6872 210.513L48.8505 210.845C49.8477 211.122 50.7341 211.473 50.7341 212.415C50.7341 213.449 49.7369 214.132 48.4258 214.132C47.2994 214.132 46.3023 213.634 46.2099 212.562H45.0281C45.1389 214.114 46.3946 215.166 48.4258 215.166C50.6048 215.166 51.842 213.966 51.842 212.433C51.842 210.661 50.1616 210.088 49.1829 209.83L48.2227 209.571C47.521 209.386 46.3946 209.017 46.3946 208.001C46.3946 207.097 47.2255 206.432 48.4812 206.432C49.6261 206.432 50.494 206.977 50.6048 207.909ZM54.1332 210.734C54.1332 209.497 54.9226 208.795 55.9982 208.795C57.0231 208.795 57.6417 209.442 57.6417 210.568V215H58.7312V210.494C58.7312 208.671 57.7617 207.817 56.3121 207.817C55.1949 207.817 54.5579 208.283 54.2255 209.017H54.1332V205.545H53.0437V215H54.1332V210.734ZM60.1913 215H61.2808V207.909H60.1913V215ZM60.7453 206.727C61.17 206.727 61.5209 206.395 61.5209 205.989C61.5209 205.582 61.17 205.25 60.7453 205.25C60.3206 205.25 59.9697 205.582 59.9697 205.989C59.9697 206.395 60.3206 206.727 60.7453 206.727ZM62.7433 215H63.8328V210.513C63.8328 209.553 64.5899 208.851 65.624 208.851C65.9148 208.851 66.2149 208.906 66.2887 208.925V207.817C66.1641 207.808 65.8779 207.798 65.7163 207.798C64.8669 207.798 64.1282 208.278 63.8697 208.98H63.7958V207.909H62.7433V215ZM70.5754 207.909H69.0611V206.21H67.9717V207.909H66.9006V208.832H67.9717V213.264C67.9717 214.501 68.9688 215.092 69.8921 215.092C70.2984 215.092 70.5569 215.018 70.7046 214.963L70.483 213.984C70.3907 214.003 70.243 214.04 70.0029 214.04C69.5228 214.04 69.0611 213.892 69.0611 212.969V208.832H70.5754V207.909Z" fill="white"/>
<path d="M32.6278 230.561H35.6009V239H36.7457V230.561H39.7188V229.545H32.6278V230.561ZM41.9268 239.166C43.164 239.166 43.8103 238.501 44.0319 238.04H44.0873V239H45.1768V234.328C45.1768 232.075 43.4595 231.817 42.5546 231.817C41.4836 231.817 40.2649 232.186 39.7109 233.479L40.745 233.848C40.985 233.331 41.5528 232.777 42.5916 232.777C43.5933 232.777 44.0873 233.308 44.0873 234.217V234.254C44.0873 234.781 43.5518 234.734 42.2592 234.901C40.9435 235.071 39.5077 235.362 39.5077 236.987C39.5077 238.372 40.5788 239.166 41.9268 239.166ZM42.093 238.188C41.2251 238.188 40.5972 237.8 40.5972 237.043C40.5972 236.212 41.3543 235.953 42.2038 235.842C42.6654 235.787 43.9026 235.658 44.0873 235.436V236.433C44.0873 237.32 43.3856 238.188 42.093 238.188ZM47.7218 234.734C47.7218 233.497 48.4882 232.795 49.5315 232.795C50.5425 232.795 51.1565 233.456 51.1565 234.568V239H52.246V234.494C52.246 232.685 51.2811 231.817 49.8454 231.817C48.7744 231.817 48.1096 232.297 47.7772 233.017H47.6849V231.909H46.6323V239H47.7218V234.734ZM53.7038 239H54.7933V236.346L55.555 235.639L58.2095 239H59.5944L56.3768 234.938L59.3729 231.909H58.0248L54.9226 235.067H54.7933V229.545H53.7038V239ZM63.3259 231.909H61.8117V230.21H60.7222V231.909H59.6512V232.832H60.7222V237.264C60.7222 238.501 61.7194 239.092 62.6427 239.092C63.0489 239.092 63.3075 239.018 63.4552 238.963L63.2336 237.984C63.1413 238.003 62.9935 238.04 62.7535 238.04C62.2734 238.04 61.8117 237.892 61.8117 236.969V232.832H63.3259V231.909ZM67.2363 239.148C69.1567 239.148 70.4493 237.689 70.4493 235.491C70.4493 233.276 69.1567 231.817 67.2363 231.817C65.3158 231.817 64.0232 233.276 64.0232 235.491C64.0232 237.689 65.3158 239.148 67.2363 239.148ZM67.2363 238.169C65.7775 238.169 65.1127 236.913 65.1127 235.491C65.1127 234.07 65.7775 232.795 67.2363 232.795C68.6951 232.795 69.3599 234.07 69.3599 235.491C69.3599 236.913 68.6951 238.169 67.2363 238.169ZM71.5794 241.659H72.6689V237.911H72.7613C73.0013 238.298 73.463 239.148 74.8294 239.148C76.6022 239.148 77.8394 237.726 77.8394 235.473C77.8394 233.239 76.6022 231.817 74.811 231.817C73.426 231.817 73.0013 232.666 72.7613 233.036H72.632V231.909H71.5794V241.659ZM72.6505 235.455C72.6505 233.866 73.3522 232.795 74.6817 232.795C76.0667 232.795 76.7499 233.959 76.7499 235.455C76.7499 236.969 76.0482 238.169 74.6817 238.169C73.3706 238.169 72.6505 237.061 72.6505 235.455Z" fill="white"/>
<path d="M33.5327 253.545H32.3324L35.804 263H36.9858L40.4574 253.545H39.2571L36.4503 261.504H36.3395L33.5327 253.545ZM44.6517 257.765H40.5153V258.781H44.6517V257.765ZM44.7015 254.561H47.6745V263H48.8194V254.561H51.7924V253.545H44.7015V254.561ZM54.0004 263.166C55.2376 263.166 55.884 262.501 56.1055 262.04H56.1609V263H57.2504V258.328C57.2504 256.075 55.5331 255.817 54.6283 255.817C53.5573 255.817 52.3385 256.186 51.7845 257.479L52.8186 257.848C53.0587 257.331 53.6265 256.777 54.6652 256.777C55.667 256.777 56.1609 257.308 56.1609 258.217V258.254C56.1609 258.781 55.6254 258.734 54.3328 258.901C53.0171 259.071 51.5814 259.362 51.5814 260.987C51.5814 262.372 52.6524 263.166 54.0004 263.166ZM54.1666 262.188C53.2987 262.188 52.6709 261.8 52.6709 261.043C52.6709 260.212 53.428 259.953 54.2774 259.842C54.7391 259.787 55.9763 259.658 56.1609 259.436V260.433C56.1609 261.32 55.4592 262.188 54.1666 262.188ZM59.7955 258.734C59.7955 257.497 60.5618 256.795 61.6051 256.795C62.6161 256.795 63.2301 257.456 63.2301 258.568V263H64.3196V258.494C64.3196 256.685 63.3548 255.817 61.919 255.817C60.848 255.817 60.1833 256.297 59.8509 257.017H59.7585V255.909H58.706V263H59.7955V258.734ZM65.7775 263H66.867V260.346L67.6287 259.639L70.2832 263H71.6681L68.4504 258.938L71.4465 255.909H70.0985L66.9962 259.067H66.867V253.545H65.7775V263Z" fill="white"/>
<path d="M12.5 41.5L15 44L20 39" stroke="white" stroke-width="2" stroke-linecap="square"/>
<rect x="0.25" y="0.25" width="247.5" height="275.5" rx="3.75" stroke="black" stroke-opacity="0.2" stroke-width="0.5"/>
</g>
<path fill-rule="evenodd" clip-rule="evenodd" d="M285 342H225V347H215V352V357H225V362H285V357H295V352V347H285V342Z" fill="#C4C4C4"/>
<path fill-rule="evenodd" clip-rule="evenodd" d="M245 267H255V272H245V267ZM220 297H225H230V302H225V307H220V297ZM280 302H285V312H280H275L275 307H270V302H275H280Z" fill="#FAE6CE"/>
<path fill-rule="evenodd" clip-rule="evenodd" d="M255 267H245V272H255V267ZM230 297H225H220V307H225V302H230V297ZM275 302H270V307H275V302ZM275 302H280V312H275V302Z" fill="#714A1C" fill-opacity="0.25" style="mix-blend-mode:multiply"/>
<rect width="5" height="35" transform="matrix(-1 0 0 1 255 277)" fill="#B2DDD8"/>
<path fill-rule="evenodd" clip-rule="evenodd" d="M250 277H255V282H250V277ZM250 302H255V312H250V302Z" fill="black" fill-opacity="0.2" style="mix-blend-mode:multiply"/>
<path fill-rule="evenodd" clip-rule="evenodd" d="M275 257H280V267H275V272H280V297H275H270V267H275V257ZM270 262H265V267H260V307H265V277H270V262ZM240 272H245V307H240H235V282H230V292H225V282H230V272H235V267H240V272Z" fill="#4B5C6C"/>
<path fill-rule="evenodd" clip-rule="evenodd" d="M275 257H280V267H275V257ZM270 262H265V267H270V262ZM240 267H235V272H240V267ZM230 282V272H235V282H230ZM230 282V292H225V282H230ZM265 302H260V307H265V302ZM245 307V302H235V307H245ZM265 272H270V277H265V272ZM275 277H270V282H275V277Z" fill="black" fill-opacity="0.2" style="mix-blend-mode:multiply"/>
<path fill-rule="evenodd" clip-rule="evenodd" d="M280 252H275V257H280V252ZM280 267V257H285V267H280ZM275 267H280V272H285V302H290V312H285L285 317H275V312H260V317H245V312H220V307H215V297H220V282H225V272H230V267H235V262H240V267H245V272H250H255V267H260V262H265L265 257H270H275L275 267ZM275 267L275 272H280V297H270V277H265V307H260V267H265V262H270L270 267H275ZM240 272V267H235V272H240ZM235 282V307H245L245 272H240V282H235ZM230 282V292H225V282H230ZM230 282H235V272H230V282ZM220 297H225H230V302H225V307H220V297ZM250 312V307L250 277H255V307V312H250ZM275 312H285L285 302H280H270V307H275V312Z" fill="black"/>
<path fill-rule="evenodd" clip-rule="evenodd" d="M235 177H270L270 182H275H280L280 187H285L285 227H290V242H285H280L280 252H275L275 257H270H265V262H235V257H230V252H225V187H230V182H235V177Z" fill="#FAE6CE"/>
<path fill-rule="evenodd" clip-rule="evenodd" d="M260 177H235V182H230V187L240 187V182H260V177ZM230 187H225V227H230V187ZM285 187H280V227H285V187ZM275 182H280V187H275V182ZM285 232H280V237H285V232ZM275 227H280V252H275L275 257H265V262H235V257H260V252H275V227Z" fill="#714A1C" fill-opacity="0.25" style="mix-blend-mode:multiply"/>
<path fill-rule="evenodd" clip-rule="evenodd" d="M260 187H265V192H260V187ZM255 187H240V192H255V187ZM235 197V192L240 192L240 197H235ZM235 197V202H230V197H235ZM290 227H285V232H290V227Z" fill="#FFFCF9" fill-opacity="0.7" style="mix-blend-mode:lighten"/>
<path fill-rule="evenodd" clip-rule="evenodd" d="M255 222H260V237H255V222ZM240 247H250V252H240V247ZM255 242H250V247H255V242ZM235 222H240V237H235V222Z" fill="black"/>
<path d="M255 222H250V232H255V222Z" fill="#714A1C" fill-opacity="0.25" style="mix-blend-mode:multiply"/>
<path fill-rule="evenodd" clip-rule="evenodd" d="M270 172H235V177H270V172ZM280 182V177H270V182H280ZM285 187V182H280L280 187H285ZM285 227V187L290 187L290 227H295V242H290L290 247H285V252H280L280 257H275L275 262H265L265 267H235V262H230V257H225V252H220V187L225 187V182H230V177H235V182H230V187H225V252H230V257H235V262H265V257H275V252H280L280 247V242H290V227H285ZM285 227V232H280V227H285Z" fill="black"/>
<path fill-rule="evenodd" clip-rule="evenodd" d="M260 312H270V342H260L260 337H255L255 332H250V317H245L245 342H235V337H230V312H235H245H250H255H260Z" fill="#2E8EE6"/>
<path fill-rule="evenodd" clip-rule="evenodd" d="M270 307H275V352H270H260H255V337L250 337V352H245H235H230H225V347H230V337H225V307H230H270ZM245 347H235V337H230V322H235V317H230V312H270V317H265V322H270V347H260L260 337H255V332H250V317H245L245 347Z" fill="black"/>
<path fill-rule="evenodd" clip-rule="evenodd" d="M270 312H265V317H270V312ZM270 322H265V327H270V322ZM260 337H265V342H260V337ZM255 332V337L260 337L260 332H255ZM255 332L255 317H250V332L255 332ZM230 312H235V317H230V312ZM235 322H230V327H235V322ZM240 322H245V342H240L235 342V332H240L240 322Z" fill="black" fill-opacity="0.2" style="mix-blend-mode:multiply"/>
<path fill-rule="evenodd" clip-rule="evenodd" d="M260 342H270V347H260V342ZM235 342H245V347H235V342Z" fill="#BA6434"/>
<path fill-rule="evenodd" clip-rule="evenodd" d="M265 342H270V347H265V342ZM240 342H245V347H240V342Z" fill="black" fill-opacity="0.2" style="mix-blend-mode:multiply"/>
<path fill-rule="evenodd" clip-rule="evenodd" d="M265 167H270L270 172H275L275 177H280V182H285H290L290 187H295H300V192H295V217H290L290 222H285L285 227H280V237H275L275 217H270L270 207H265V202H245H230V207H225V212H220V197H215V192H220V187H215V182H220H225V177H230V172H245L245 167H265Z" fill="#BA6434"/>
<path fill-rule="evenodd" clip-rule="evenodd" d="M280 177H275L275 182H270L270 187H265V192H255V197H230V202H255H265V207H270L270 217H275L275 237H280V227H285L285 222H290V207H285H280V202H275L275 197H270V192H275L275 187H280V177ZM220 197H225V202L230 202V207H225V212H220V197ZM220 197H215V192H220V197ZM295 202H290V217H295V202ZM235 187H250V192H235V187ZM235 182H225V187H235V182Z" fill="black" fill-opacity="0.2" style="mix-blend-mode:multiply"/>
<path fill-rule="evenodd" clip-rule="evenodd" d="M265 177H250V182H265V177ZM280 187H285V192H290V197H285L285 192H280V187ZM240 177H245V182H240V177Z" fill="white" fill-opacity="0.3" style="mix-blend-mode:lighten"/>
<path fill-rule="evenodd" clip-rule="evenodd" d="M270 162H245V167H270V162ZM275 172V167L270 167V172H275ZM280 177V172H275L275 177H280ZM290 182V177L280 177V182H290ZM300 187V182L290 182L290 187H300ZM300 192H305V187L300 187V192ZM295 217H300V192H295V217ZM295 217H290V227H295V217ZM230 172H245L245 167L230 167V172ZM225 177H230V172H225V177ZM215 182H225V177L215 177V182ZM215 187V182L210 182V187H215ZM215 192H220V187L215 187V192ZM215 197H210V192H215V197ZM215 197V217H220V197H215Z" fill="black"/>
<rect x="211.375" y="248.375" width="7.875" height="7.875" stroke="#7B61FF" stroke-width="1.5"/>
<rect x="211.375" y="312.75" width="7.875" height="7.875" stroke="#7B61FF" stroke-width="1.5"/>
<rect x="285.75" y="248.375" width="7.875" height="7.875" stroke="#7B61FF" stroke-width="1.5"/>
<rect x="285.75" y="312.75" width="7.875" height="7.875" stroke="#7B61FF" stroke-width="1.5"/>
<line x1="220" y1="251.25" x2="285" y2="251.25" stroke="#7B61FF" stroke-width="1.5"/>
<line x1="220" y1="316.875" x2="285" y2="316.875" stroke="#7B61FF" stroke-width="1.5"/>
<line x1="215.125" y1="257" x2="215.125" y2="312" stroke="#7B61FF" stroke-width="1.5"/>
<line x1="289.75" y1="257" x2="289.75" y2="312" stroke="#7B61FF" stroke-width="1.5"/>
<rect x="222.5" y="325.75" width="58.75" height="21.25" rx="3" fill="#7B61FF"/>
<path d="M237.316 331.25H236.14L234.144 332.555V333.711L236.058 332.461H236.105V339.25H237.316V331.25ZM241.79 339.359C243.4 339.359 244.548 338.223 244.544 336.664C244.548 335.117 243.47 333.992 242.013 333.992C241.419 333.992 240.868 334.219 240.556 334.523H240.509L240.763 332.285H244.158V331.25H239.759L239.31 335.281L240.415 335.445C240.716 335.176 241.255 334.992 241.74 334.992C242.689 335 243.376 335.711 243.376 336.687C243.376 337.648 242.708 338.344 241.79 338.344C241.017 338.344 240.404 337.852 240.341 337.164H239.169C239.216 338.437 240.322 339.359 241.79 339.359ZM252.992 337.922L253.73 337.184L251.855 335.309L253.73 333.434L252.992 332.691L251.117 334.566L249.238 332.691L248.5 333.434L250.375 335.309L248.5 337.184L249.238 337.922L251.117 336.047L252.992 337.922ZM260.835 331.25H259.659L257.663 332.555V333.711L259.577 332.461H259.624V339.25H260.835V331.25ZM265.454 339.359C267.087 339.359 268.286 338.383 268.282 337.055C268.286 336.043 267.673 335.316 266.61 335.152V335.09C267.446 334.875 267.989 334.219 267.985 333.32C267.989 332.145 267.024 331.141 265.485 331.141C264.016 331.141 262.837 332.027 262.798 333.328H263.966C263.993 332.594 264.684 332.148 265.469 332.148C266.286 332.148 266.821 332.645 266.817 333.383C266.821 334.156 266.2 334.664 265.313 334.664H264.637V335.648H265.313C266.423 335.648 267.063 336.211 267.063 337.016C267.063 337.793 266.387 338.32 265.446 338.32C264.579 338.32 263.903 337.875 263.856 337.164H262.63C262.68 338.469 263.837 339.359 265.454 339.359Z" fill="white"/>
</g>
<defs>
<filter id="filter0_d" x="-8" y="-8" width="264" height="292" filterUnits="userSpaceOnUse" color-interpolation-filters="sRGB">
<feFlood flood-opacity="0" result="BackgroundImageFix"/>
<feColorMatrix in="SourceAlpha" type="matrix" values="0 0 0 0 0 0 0 0 0 0 0 0 0 0 0 0 0 0 127 0"/>
<feOffset/>
<feGaussianBlur stdDeviation="4"/>
<feColorMatrix type="matrix" values="0 0 0 0 0 0 0 0 0 0 0 0 0 0 0 0 0 0 0.25 0"/>
<feBlend mode="normal" in2="BackgroundImageFix" result="effect1_dropShadow"/>
<feBlend mode="normal" in="SourceGraphic" in2="effect1_dropShadow" result="shape"/>
</filter>
<clipPath id="clip0">
<rect width="320" height="362" fill="white"/>
</clipPath>
</defs>
</svg>
